<?xml version="1.0" encoding="UTF-8" standalone="no"?>
<svg
   viewBox="0 0 579.14796 579.14796"
   version="1.1"
   id="svg1"
   sodipodi:docname="peertub.svg"
   inkscape:version="1.3.1 (91b66b0783, 2023-11-16)"
   xml:space="preserve"
   width="579.14795"
   height="579.14795"
   xmlns:inkscape="http://www.inkscape.org/namespaces/inkscape"
   xmlns:sodipodi="http://sodipodi.sourceforge.net/DTD/sodipodi-0.dtd"
   xmlns="http://www.w3.org/2000/svg"
   xmlns:svg="http://www.w3.org/2000/svg"
   xmlns:rdf="http://www.w3.org/1999/02/22-rdf-syntax-ns#"
   xmlns:cc="http://creativecommons.org/ns#"><defs
     id="defs1"><rect
       id="path-1"
       x="0"
       y="0.11210762"
       width="50"
       height="49.775784" /><linearGradient
       x1="26.799479"
       y1="19.639755"
       x2="6.4907837"
       y2="20.515251"
       id="linearGradient-3"
       gradientTransform="scale(0.85441985,1.1703848)"
       gradientUnits="userSpaceOnUse"><stop
         stop-color="#FF5C34"
         offset="0%"
         id="stop1" /><stop
         stop-color="#EB0256"
         offset="100%"
         id="stop2" /></linearGradient><linearGradient
       x1="18.604218"
       y1="60.088772"
       x2="29.551889"
       y2="34.263325"
       id="linearGradient-4"
       gradientTransform="scale(1.2181633,0.82090802)"
       gradientUnits="userSpaceOnUse"><stop
         stop-color="#A63FDB"
         offset="0%"
         id="stop3" /><stop
         stop-color="#FF257E"
         offset="100%"
         id="stop4" /></linearGradient><linearGradient
       x1="31.906258"
       y1="22.861416"
       x2="56.143276"
       y2="28.198187"
       id="linearGradient-5"
       gradientTransform="scale(0.87861867,1.1381502)"
       gradientUnits="userSpaceOnUse"><stop
         stop-color="#00FFF0"
         offset="0%"
         id="stop5" /><stop
         stop-color="#0087FF"
         offset="100%"
         id="stop6" /></linearGradient><linearGradient
       x1="40.014423"
       y1="3.0503507"
       x2="21.610674"
       y2="22.693472"
       id="linearGradient-6"
       gradientTransform="scale(1.0479971,0.95420109)"
       gradientUnits="userSpaceOnUse"><stop
         stop-color="#17C934"
         offset="0%"
         id="stop7" /><stop
         stop-color="#03FF6E"
         offset="100%"
         id="stop8" /></linearGradient><linearGradient
       x1="0.5"
       y1="1.1191301"
       x2="0.30560157"
       y2="0"
       id="linearGradient-7"><stop
         stop-color="#FFB000"
         offset="0%"
         id="stop9" /><stop
         stop-color="#FF7725"
         offset="100%"
         id="stop10" /></linearGradient><path
       d="M 25.87962,24.663677 C 25.518751,17.862325 19.644178,12.637694 12.758394,12.994138 5.8726091,13.350581 0.58311968,19.153122 0.94398835,25.954474 l 0.010371,0.195465 c -0.0295871,-0.491682 -0.0445914,-0.987241 -0.0445914,-1.486262 0,-10.155941 6.21464645,-18.8781713 15.09259805,-22.6588956 l 0.523383,-0.2088675 c 6.393149,-2.55132802 13.669757,0.4995351 16.252757,6.8142936 2.583,6.3147585 -0.505736,13.5021415 -6.898886,16.0534695 z"
       id="path-8" /><path
       d="m 16.338766,1.8705335 0.186983,-0.07462 c 6.393149,-2.55132802 13.669757,0.4995351 16.252757,6.8142936 2.583,6.3147589 -0.505736,13.5021419 -6.898886,16.0534699 -0.05343,-1.007011 -0.227732,-1.979458 -0.50829,-2.904343 3.429966,-1.856689 5.75552,-5.45605 5.75552,-9.591913 0,-6.0367452 -4.954499,-10.9304937 -11.066184,-10.9304937 -1.305803,0 -2.558782,0.223396 -3.7219,0.6336062 z"
       id="path-9" /><linearGradient
       x1="16.690788"
       y1="19.195547"
       x2="57.873302"
       y2="21.720842"
       id="linearGradient-10"
       gradientTransform="scale(0.85441984,1.1703848)"
       gradientUnits="userSpaceOnUse"><stop
         stop-color="#9EE85D"
         offset="0%"
         id="stop11" /><stop
         stop-color="#0ED061"
         offset="100%"
         id="stop12" /></linearGradient><path
       d="m 28.379451,9.2701483 0.186983,-0.07462 c 6.393149,-2.551328 13.669757,0.4995351 16.252757,6.8142937 2.583,6.314759 -0.505736,13.502142 -6.898886,16.05347 -0.05343,-1.007011 -0.227732,-1.979458 -0.50829,-2.904343 3.429966,-1.856689 5.75552,-5.45605 5.75552,-9.591913 0,-6.036745 -4.954499,-10.9304939 -11.066184,-10.9304939 -1.305803,0 -2.558782,0.223396 -3.7219,0.6336062 z"
       id="path-11" /><linearGradient
       x1="38.66045"
       y1="42.313534"
       x2="29.417906"
       y2="17.769199"
       id="linearGradient-12"
       gradientTransform="scale(0.85441985,1.1703848)"
       gradientUnits="userSpaceOnUse"><stop
         stop-color="#21EFE3"
         offset="0%"
         id="stop13" /><stop
         stop-color="#2598FF"
         offset="100%"
         id="stop14" /></linearGradient><path
       d="m 25.135241,22.73235 0.186983,-0.07462 c 6.39315,-2.551328 13.669757,0.499535 16.252757,6.814293 2.583001,6.314759 -0.505736,13.502142 -6.898886,16.05347 -0.05343,-1.007011 -0.227731,-1.979458 -0.50829,-2.904343 3.429966,-1.856689 5.755521,-5.45605 5.755521,-9.591913 0,-6.036745 -4.9545,-10.930494 -11.066185,-10.930494 -1.305803,0 -2.558782,0.223396 -3.7219,0.633607 z"
       id="path-13" /><linearGradient
       x1="32.778084"
       y1="31.292349"
       x2="-5.737164"
       y2="34.564075"
       id="linearGradient-14"
       gradientTransform="scale(0.85441985,1.1703848)"
       gradientUnits="userSpaceOnUse"><stop
         stop-color="#A63FDB"
         offset="0%"
         id="stop15" /><stop
         stop-color="#FF257E"
         offset="100%"
         id="stop16" /></linearGradient><path
       d="m 10.654093,23.764822 0.186983,-0.07462 c 6.393149,-2.551328 13.669757,0.499535 16.252757,6.814293 2.583,6.314759 -0.505736,13.502142 -6.898886,16.05347 -0.05343,-1.007011 -0.227732,-1.979458 -0.50829,-2.904343 3.429966,-1.856689 5.75552,-5.45605 5.75552,-9.591913 0,-6.036745 -4.954499,-10.930493 -11.066184,-10.930493 -1.305803,0 -2.558782,0.223396 -3.7219,0.633606 z"
       id="path-15" /><path
       d="m 5.5458544,10.697205 0.1869826,-0.07462 c 6.39315,-2.5513278 13.669757,0.499535 16.252757,6.814294 2.583,6.314758 -0.505736,13.502141 -6.898886,16.053469 -0.05343,-1.007011 -0.227732,-1.979458 -0.50829,-2.904342 3.429966,-1.856689 5.755521,-5.45605 5.755521,-9.591914 0,-6.036745 -4.9545,-10.930493 -11.0661847,-10.930493 -1.3058034,0 -2.5587821,0.223396 -3.7218999,0.633606 z"
       id="path-16" /><path
       d="m 35.631732,42.373098 h 4.544831 c 4.281413,0 7.752184,-3.36365 7.752184,-7.512922 0,-4.149273 -3.470771,-7.512923 -7.752184,-7.512923 h -6.55954 c -2.470046,0 -4.472413,1.940568 -4.472413,4.334379 v 16.869977 z"
       id="path-17" /><filter
       x="-0.19165108"
       y="-0.16977644"
       width="1.3833021"
       height="1.386713"
       filterUnits="objectBoundingBox"
       id="filter-18"><feOffset
         dx="0"
         dy="1"
         in="SourceAlpha"
         result="shadowOffsetOuter1"
         id="feOffset16" /><feGaussianBlur
         stdDeviation="1.5"
         in="shadowOffsetOuter1"
         result="shadowBlurOuter1"
         id="feGaussianBlur16" /><feColorMatrix
         values="0 0 0 0 0   0 0 0 0 0   0 0 0 0 0  0 0 0 0.298686594 0"
         type="matrix"
         in="shadowBlurOuter1"
         id="feColorMatrix16" /></filter></defs><sodipodi:namedview
     id="namedview1"
     pagecolor="#505050"
     bordercolor="#eeeeee"
     borderopacity="1"
     inkscape:showpageshadow="0"
     inkscape:pageopacity="0"
     inkscape:pagecheckerboard="0"
     inkscape:deskcolor="#d1d1d1"
     inkscape:zoom="1.1324757"
     inkscape:cx="445.92568"
     inkscape:cy="279.03468"
     inkscape:window-width="1920"
     inkscape:window-height="1016"
     inkscape:window-x="0"
     inkscape:window-y="0"
     inkscape:window-maximized="1"
     inkscape:current-layer="svg1" /><!--! Font Awesome Pro 6.4.2 by @fontawesome - https://fontawesome.com License - https://fontawesome.com/license (Commercial License) Copyright 2023 Fonticons, Inc. --><metadata
     id="metadata1"><rdf:RDF><cc:Work
         rdf:about=""><cc:license
           rdf:resource="http://artlibre.org/licence/lal" /></cc:Work><cc:License
         rdf:about="http://artlibre.org/licence/lal"><cc:permits
           rdf:resource="http://creativecommons.org/ns#Reproduction" /><cc:permits
           rdf:resource="http://creativecommons.org/ns#Distribution" /><cc:permits
           rdf:resource="http://creativecommons.org/ns#DerivativeWorks" /><cc:requires
           rdf:resource="http://creativecommons.org/ns#ShareAlike" /><cc:requires
           rdf:resource="http://creativecommons.org/ns#Notice" /><cc:requires
           rdf:resource="http://creativecommons.org/ns#Attribution" /></cc:License></rdf:RDF></metadata><path
     id="path1043-7-2"
     style="vector-effect:none;fill:#f6f5f4;fill-opacity:0.38351172;fill-rule:evenodd;stroke:none;stroke-width:1.79784;stroke-linecap:butt;stroke-linejoin:miter;stroke-miterlimit:4;stroke-dasharray:none;stroke-dashoffset:0;stroke-opacity:1"
     d="M 356.13672 421.29492 C 354.51463 421.29952 353.31958 421.42747 352.80859 421.7168 C 350.08336 423.25978 335.01254 436.63132 336.6875 440.73828 C 338.36245 444.84526 344.41283 457.52597 351.92383 458.16602 C 364.50148 468.06356 367.41717 474.68884 364.76562 488.83008 C 362.40516 501.41914 343.9447 502.99132 344.58203 507.85742 C 344.64057 508.30421 344.72424 508.72856 344.82227 509.14062 C 342.92677 510.70135 341.63934 512.11719 341.32227 513.02734 C 339.72615 517.60849 363.80502 528.75552 378.48633 533.95117 C 393.16753 539.14681 408.80808 536.76415 419.25 530.86719 C 429.05611 525.3293 440.625 506.76953 440.625 506.76953 C 434.13203 503.85039 424.44785 517.45519 414.62305 518.90039 C 406.06591 520.1591 392.1891 520.09302 382.30859 510.5332 C 394.28666 501.67643 402.46064 486.27216 405.2207 469.39258 C 408.66858 448.30631 383.3089 426.89686 380.50391 425.06055 C 378.22487 423.5684 363.16578 421.27501 356.13672 421.29492 z M 245.44141 423.50391 C 238.41235 423.484 223.35131 425.77738 221.07227 427.26953 C 218.26729 429.10584 192.90758 450.5153 196.35547 471.60156 C 199.11552 488.48114 207.29147 503.88542 219.26953 512.74219 C 209.38902 522.30212 195.51029 522.36811 186.95312 521.10938 C 177.12831 519.66419 167.44415 506.05935 160.95117 508.97852 C 160.95117 508.97852 172.52005 527.53634 182.32617 533.07422 C 192.76808 538.97121 208.40863 541.35581 223.08984 536.16016 C 237.77114 530.96451 261.85003 519.81747 260.25391 515.23633 C 259.93682 514.32615 258.64951 512.9104 256.75391 511.34961 C 256.85193 510.93755 256.9356 510.51319 256.99414 510.06641 C 257.63147 505.20028 239.17102 503.62812 236.81055 491.03906 C 234.15902 476.89783 237.07664 470.27254 249.6543 460.375 C 257.1653 459.73498 263.21371 447.05423 264.88867 442.94727 C 266.56362 438.84029 251.49283 425.46879 248.76758 423.92578 C 248.2566 423.63645 247.0635 423.5085 245.44141 423.50391 z " /><path
     id="path865-2"
     style="color:#000000;clip-rule:nonzero;display:inline;overflow:visible;visibility:visible;isolation:auto;mix-blend-mode:normal;color-interpolation:sRGB;color-interpolation-filters:linearRGB;solid-color:#000000;solid-opacity:1;vector-effect:none;fill:#f6f5f4;fill-opacity:1;fill-rule:nonzero;stroke:none;stroke-width:1.79784;stroke-linecap:butt;stroke-linejoin:miter;stroke-miterlimit:4;stroke-dasharray:none;stroke-dashoffset:0;stroke-opacity:1;marker:none;paint-order:markers stroke fill;color-rendering:auto;image-rendering:auto;shape-rendering:auto;text-rendering:auto;enable-background:accumulate"
     d="M 283.52344,27.878906 C 276.3613,28.092409 268.32075,33.160887 264.2793,39.519531 256.44217,56.60289 88.70129,290.15584 75.443359,303.17188 c -13.257833,13.01629 10.293193,28.84264 20.304688,27.70703 2.580227,-0.29256 30.948633,-1.11736 70.796873,-2.20118 9.421,43.34402 40.53975,81.18355 77.13281,101.5586 -8.52721,9.33506 -25.45369,31.91689 -22.49609,52.90039 2.93114,20.79542 13.72894,38.16327 27.77148,48.71875 -9.72904,7.64041 -22.02041,7.57978 -29.89453,6.34375 -10.01967,-1.5725 -19.8958,-16.37774 -26.51757,-13.20117 0,0 11.79644,20.19456 21.79687,26.2207 10.64892,6.41701 26.60186,9.01108 41.57422,3.35742 14.97232,-5.65381 36.17277,-15.17698 34.54492,-20.16211 -0.22006,-0.674 -0.85126,-1.66058 -1.75781,-2.80078 0.38553,-5.87908 -15.14474,-8.76495 -17.66406,-24.24219 -2.86314,-17.59007 0.51276,-25.74789 14.88086,-37.76953 8.52629,-0.64274 15.51903,-16.24707 17.46093,-21.30664 0.0735,-0.19157 0.11171,-0.40683 0.13282,-0.63086 2.27994,5.68569 8.97232,19.85477 17.11718,20.46875 14.3681,12.02165 17.74401,20.18139 14.88086,37.77149 -2.41938,14.86309 -16.83882,18.11359 -17.63867,23.55468 -1.00066,1.23099 -1.70595,2.30436 -1.93945,3.01954 -1.62786,4.9851 19.57258,14.5083 34.54492,20.1621 14.97233,5.65367 30.92336,3.05959 41.57227,-3.35742 10.0004,-6.02614 21.79882,-26.2207 21.79882,-26.2207 -6.62176,-3.1766 -16.49791,11.62675 -26.51758,13.19922 -7.77155,1.21996 -19.84657,1.29512 -29.51367,-6.04883 13.9317,-10.57182 24.63155,-27.85974 27.54688,-48.54297 3.10487,-22.02844 -15.68611,-45.79788 -23.6836,-54.16992 34.14948,-20.84463 57.15761,-57.25987 60.91211,-105.93359 44.87053,-1.39551 79.01944,-2.63639 82.12305,-3.3711 11.14729,-5.09244 10.30248,-18.59496 2.00586,-27.39258 C 500.67201,284.3905 298.53545,40.037205 294.41211,33.505859 291.80044,29.369255 287.8207,27.750805 283.52344,27.878906 Z m -0.19336,40.460938 c 0.36243,0.0079 0.72035,0.04742 1.07617,0.115234 2.214,0.422125 4.28188,1.955289 5.99219,3.945313 2.06197,2.39907 45.68601,55.931349 87.60547,107.310549 37.57219,46.0511 73.88633,90.50654 76.08789,92.88476 6.39168,6.90431 14.32257,17.86395 5.58789,19.97657 -4.41676,1.06832 -45.84615,3.55533 -122.15039,5.87304 23.635,-41.91824 32.81533,-76.86822 40.21484,-117.375 -70.88463,-6.83182 -133.7309,-2.84632 -172.81445,0.46485 29.97778,25.77314 85.82132,71.80458 131.57031,117.08593 -74.2796,2.25505 -183.27065,4.35147 -187.10938,4.80274 -7.79745,0.91635 -23.18039,-17.10335 -12.77148,-27.37695 5.02506,-4.95978 36.14754,-49.21061 67.64844,-95.07422 0.0122,0.0105 0.0308,0.0247 0.043,0.0352 33.79365,-49.19814 68.07116,-100.322675 71.29297,-107.294919 2.51229,-3.947892 5.18952,-5.428207 7.72656,-5.373047 z m 22.68554,256.175776 c 5.20796,7.3e-4 9.42966,8.02003 9.42969,17.91211 -3e-5,9.89208 -4.22173,17.91138 -9.42969,17.91211 -5.20796,-7.5e-4 -9.42965,-8.02003 -9.42968,-17.91211 3e-5,-9.89208 4.22172,-17.91136 9.42968,-17.91211 z m 38.88868,-0.81445 c 5.20796,7.5e-4 9.42965,8.02003 9.42968,17.91211 -3e-5,9.89208 -4.22172,17.91136 -9.42968,17.91211 -5.20796,-7.3e-4 -9.42966,-8.02003 -9.42969,-17.91211 3e-5,-9.89208 4.22173,-17.91138 9.42969,-17.91211 z"
     sodipodi:nodetypes="scccccscccscscscsccsccsscccscccccssccccscccccscccscscsccscsc" /><path
     style="fill:#f6f5f4;fill-opacity:0.38351172;fill-rule:evenodd;stroke:none;stroke-width:3.28106;stroke-linecap:butt;stroke-linejoin:miter;stroke-miterlimit:4;stroke-dasharray:none;stroke-opacity:1"
     d="m 229.91946,119.08978 c -3.47379,4.93767 -6.00657,8.7053 -8.26501,11.24223 -3.48709,3.91721 -12.32984,1.04949 -7.90474,-5.1277 2.25053,-3.34398 5.20115,-7.53366 8.805,-11.81691 3.60395,-4.28308 10.83853,0.76497 7.36475,5.70238 z"
     id="path867-4-9"
     inkscape:connector-curvature="0"
     sodipodi:nodetypes="csccc" /><path
     style="color:#000000;clip-rule:nonzero;display:inline;overflow:visible;visibility:visible;isolation:auto;mix-blend-mode:normal;color-interpolation:sRGB;color-interpolation-filters:linearRGB;solid-color:#000000;solid-opacity:1;vector-effect:none;fill:#f6f5f4;fill-opacity:0.38351172;fill-rule:nonzero;stroke:none;stroke-width:1.79784;stroke-linecap:butt;stroke-linejoin:miter;stroke-miterlimit:4;stroke-dasharray:none;stroke-dashoffset:0;stroke-opacity:1;marker:none;paint-order:markers stroke fill;color-rendering:auto;image-rendering:auto;shape-rendering:auto;text-rendering:auto;enable-background:accumulate"
     d="m 294.51212,442.96582 c -4.17449,1.32231 -4.03956,1.90418 -10.6351,6.85991 -15.88397,11.93485 -21.9194,26.13092 -22.45534,31.20882 -0.53665,5.07781 -5.62704,16.30621 2.77686,31.09574 4.71311,9.58319 14.61801,13.15001 19.74069,15.58194 3.10377,1.93943 5.8524,6.18887 6.63976,7.83605 0.27237,-1.29102 2.39814,-7.969 -1.65392,-10.13978 l 0.38294,-0.7614 c 0.045,-0.063 0.0809,-0.11321 0.11957,-0.17338 0.11865,-0.1986 0.21484,-0.41173 0.28855,-0.63643 l 0.0539,-0.10418 c -0.005,-0.005 -0.009,-0.009 -0.009,-0.019 0.7371,-2.43623 -1.15458,-5.85185 -4.4706,-8.07165 -1.83289,-1.22387 -3.87577,-1.92449 -5.66301,-1.94219 l -1.8e-4,0.005 c -1.72125,-0.019 -3.06755,0.59869 -3.75307,1.71855 -0.12945,0.21833 -0.23372,0.45306 -0.31012,0.70296 l -0.0181,0.036 c -1.574,-1.75891 -2.89073,-3.75146 -3.69985,-6.10366 0.34968,0.01 0.69846,-0.0269 1.04176,-0.12581 l 3.32383,-1.31333 c 0.0719,-0.019 0.15013,-0.0269 0.22473,-0.0449 0.24631,-0.0809 0.48632,-0.18433 0.71644,-0.3191 l 0.10517,-0.045 c 9e-4,-0.008 -4.5e-4,-0.005 6.3e-4,-0.019 2.39508,-1.46173 3.37913,-5.73529 2.32497,-10.09657 -1.05075,-4.33252 -3.80774,-7.48528 -6.53145,-7.4692 -0.31911,-8.8e-4 -0.63104,0.0449 -0.93289,0.1358 -0.27148,0.0899 -0.53306,0.20407 -0.78296,0.35778 l -0.5834,0.17791 c 0.4171,-2.11732 1.09219,-4.10219 2.01861,-6.02048 l 1.31242,0.97028 c 0.0539,0.063 0.10786,0.11773 0.16629,0.17172 0.21036,0.18337 0.44587,0.34068 0.70116,0.46833 l 0.0917,0.063 c 0.008,-0.002 0.009,-0.008 0.0181,-0.01 2.69513,1.28985 7.27207,-0.61217 10.81282,-4.49299 3.99056,-4.37861 5.25714,-9.70201 2.82871,-11.89006 -0.22832,-0.19954 -0.48541,-0.36677 -0.76768,-0.5016 l -0.42428,-0.37844 c 8.50889,-1.51002 15.39551,-16.19619 17.35065,-21.07676 0.92526,-2.31006 1.18738,-1.05883 -2.88104,-5.76217 0,0 -5.15664,-0.60765 -7.4683,0.12416 z"
     id="path1092-6-8-2-4"
     inkscape:connector-curvature="0"
     sodipodi:nodetypes="ssccccccccccccccccccccccccccccccccccccccccs" /><path
     style="color:#000000;clip-rule:nonzero;display:inline;overflow:visible;visibility:visible;isolation:auto;mix-blend-mode:normal;color-interpolation:sRGB;color-interpolation-filters:linearRGB;solid-color:#000000;solid-opacity:1;vector-effect:none;fill:#f6f5f4;fill-opacity:0.38351172;fill-rule:nonzero;stroke:none;stroke-width:1.79784;stroke-linecap:butt;stroke-linejoin:miter;stroke-miterlimit:4;stroke-dasharray:none;stroke-dashoffset:0;stroke-opacity:1;marker:none;paint-order:markers stroke fill;color-rendering:auto;image-rendering:auto;shape-rendering:auto;text-rendering:auto;enable-background:accumulate"
     d="m 310.84879,446.50495 c 3.29238,1.81904 2.67438,1.4521 9.26336,6.02582 17.60684,12.22167 20.70316,22.676 22.67512,28.83091 1.07519,5.97537 2.57558,21.69135 -0.44317,29.30077 -4.71311,9.58319 -14.61803,13.15001 -19.7407,15.58193 -3.10377,1.93943 -5.8524,6.18888 -6.63976,7.83606 -0.27237,-1.29102 -2.39814,-7.96899 1.65392,-10.13979 l -0.38294,-0.76139 c -0.045,-0.063 -0.0809,-0.11321 -0.11956,-0.17338 -0.11866,-0.1986 -0.21485,-0.41173 -0.28855,-0.63644 l -0.0539,-0.10442 c 0.005,-0.005 0.009,-0.01 0.009,-0.019 -0.73711,-2.43624 1.15457,-5.85186 4.47059,-8.07167 1.83289,-1.22387 3.87577,-1.92449 5.663,-1.94219 l 1.9e-4,0.005 c 1.72124,-0.019 3.06755,0.59869 3.75307,1.71856 0.12945,0.21834 0.23372,0.45305 0.31012,0.70295 l 0.0181,0.036 c 1.574,-1.75891 2.89074,-3.75145 3.69986,-6.10366 -0.34968,0.01 -0.69846,-0.0269 -1.04176,-0.12581 l -3.32397,-1.31223 c -0.0719,-0.019 -0.15013,-0.0269 -0.22474,-0.045 -0.2463,-0.0809 -0.48631,-0.18433 -0.71644,-0.3191 l -0.10517,-0.0449 c -9e-4,-0.008 4.5e-4,-0.005 -6.3e-4,-0.019 -2.39508,-1.46173 -3.37912,-5.73527 -2.32496,-10.09657 1.05075,-4.33252 3.80772,-7.48528 6.53145,-7.46921 0.31911,-8.8e-4 0.63104,0.045 0.93289,0.13581 0.27148,0.0899 0.53307,0.20407 0.78296,0.35776 l 0.5834,0.17791 c -0.41709,-2.11732 -1.09218,-4.10222 -2.01861,-6.02051 l -1.31242,0.97028 c -0.0539,0.063 -0.10786,0.11773 -0.1663,0.17172 -0.21034,0.18337 -0.44586,0.34068 -0.70115,0.46833 l -0.0917,0.063 c -0.008,-0.002 -0.009,-0.008 -0.0181,-0.01 -2.69514,1.28985 -7.27206,-0.61217 -10.81281,-4.49296 -3.99057,-4.37864 -5.25714,-9.70204 -2.82871,-11.89009 0.22832,-0.19954 0.48541,-0.36676 0.76767,-0.5016 l 0.42429,-0.37844 c -8.50889,-1.50999 -15.3955,-16.19618 -17.35065,-21.07676 -0.92525,-2.31005 -6.5328,0.52046 -2.46439,-4.18304 1.19557,-1.38217 8.04514,1.57043 11.6321,3.55227 z"
     id="path1092-6-8-2-4-4"
     inkscape:connector-curvature="0"
     sodipodi:nodetypes="sscccccccccccccccccccccccccccccccccccccccss" /></svg>
