<?xml version="1.0" encoding="UTF-8" standalone="no"?>
<svg
   viewBox="0 0 579.14796 579.14796"
   version="1.1"
   id="svg1"
   sodipodi:docname="litho.svg"
   inkscape:version="1.2.2 (b0a8486541, 2022-12-01)"
   xml:space="preserve"
   width="579.14795"
   height="579.14795"
   xmlns:inkscape="http://www.inkscape.org/namespaces/inkscape"
   xmlns:sodipodi="http://sodipodi.sourceforge.net/DTD/sodipodi-0.dtd"
   xmlns="http://www.w3.org/2000/svg"
   xmlns:svg="http://www.w3.org/2000/svg"
   xmlns:rdf="http://www.w3.org/1999/02/22-rdf-syntax-ns#"
   xmlns:cc="http://creativecommons.org/ns#"><defs
     id="defs1"><rect
       id="path-1"
       x="0"
       y="0.11210762"
       width="50"
       height="49.775784" /><linearGradient
       x1="26.799479"
       y1="19.639755"
       x2="6.4907837"
       y2="20.515251"
       id="linearGradient-3"
       gradientTransform="scale(0.85441985,1.1703848)"
       gradientUnits="userSpaceOnUse"><stop
         stop-color="#FF5C34"
         offset="0%"
         id="stop1" /><stop
         stop-color="#EB0256"
         offset="100%"
         id="stop2" /></linearGradient><linearGradient
       x1="18.604218"
       y1="60.088772"
       x2="29.551889"
       y2="34.263325"
       id="linearGradient-4"
       gradientTransform="scale(1.2181633,0.82090802)"
       gradientUnits="userSpaceOnUse"><stop
         stop-color="#A63FDB"
         offset="0%"
         id="stop3" /><stop
         stop-color="#FF257E"
         offset="100%"
         id="stop4" /></linearGradient><linearGradient
       x1="31.906258"
       y1="22.861416"
       x2="56.143276"
       y2="28.198187"
       id="linearGradient-5"
       gradientTransform="scale(0.87861867,1.1381502)"
       gradientUnits="userSpaceOnUse"><stop
         stop-color="#00FFF0"
         offset="0%"
         id="stop5" /><stop
         stop-color="#0087FF"
         offset="100%"
         id="stop6" /></linearGradient><linearGradient
       x1="40.014423"
       y1="3.0503507"
       x2="21.610674"
       y2="22.693472"
       id="linearGradient-6"
       gradientTransform="scale(1.0479971,0.95420109)"
       gradientUnits="userSpaceOnUse"><stop
         stop-color="#17C934"
         offset="0%"
         id="stop7" /><stop
         stop-color="#03FF6E"
         offset="100%"
         id="stop8" /></linearGradient><linearGradient
       x1="0.5"
       y1="1.1191301"
       x2="0.30560157"
       y2="0"
       id="linearGradient-7"><stop
         stop-color="#FFB000"
         offset="0%"
         id="stop9" /><stop
         stop-color="#FF7725"
         offset="100%"
         id="stop10" /></linearGradient><path
       d="M 25.87962,24.663677 C 25.518751,17.862325 19.644178,12.637694 12.758394,12.994138 5.8726091,13.350581 0.58311968,19.153122 0.94398835,25.954474 l 0.010371,0.195465 c -0.0295871,-0.491682 -0.0445914,-0.987241 -0.0445914,-1.486262 0,-10.155941 6.21464645,-18.8781713 15.09259805,-22.6588956 l 0.523383,-0.2088675 c 6.393149,-2.55132802 13.669757,0.4995351 16.252757,6.8142936 2.583,6.3147585 -0.505736,13.5021415 -6.898886,16.0534695 z"
       id="path-8" /><path
       d="m 16.338766,1.8705335 0.186983,-0.07462 c 6.393149,-2.55132802 13.669757,0.4995351 16.252757,6.8142936 2.583,6.3147589 -0.505736,13.5021419 -6.898886,16.0534699 -0.05343,-1.007011 -0.227732,-1.979458 -0.50829,-2.904343 3.429966,-1.856689 5.75552,-5.45605 5.75552,-9.591913 0,-6.0367452 -4.954499,-10.9304937 -11.066184,-10.9304937 -1.305803,0 -2.558782,0.223396 -3.7219,0.6336062 z"
       id="path-9" /><linearGradient
       x1="16.690788"
       y1="19.195547"
       x2="57.873302"
       y2="21.720842"
       id="linearGradient-10"
       gradientTransform="scale(0.85441984,1.1703848)"
       gradientUnits="userSpaceOnUse"><stop
         stop-color="#9EE85D"
         offset="0%"
         id="stop11" /><stop
         stop-color="#0ED061"
         offset="100%"
         id="stop12" /></linearGradient><path
       d="m 28.379451,9.2701483 0.186983,-0.07462 c 6.393149,-2.551328 13.669757,0.4995351 16.252757,6.8142937 2.583,6.314759 -0.505736,13.502142 -6.898886,16.05347 -0.05343,-1.007011 -0.227732,-1.979458 -0.50829,-2.904343 3.429966,-1.856689 5.75552,-5.45605 5.75552,-9.591913 0,-6.036745 -4.954499,-10.9304939 -11.066184,-10.9304939 -1.305803,0 -2.558782,0.223396 -3.7219,0.6336062 z"
       id="path-11" /><linearGradient
       x1="38.66045"
       y1="42.313534"
       x2="29.417906"
       y2="17.769199"
       id="linearGradient-12"
       gradientTransform="scale(0.85441985,1.1703848)"
       gradientUnits="userSpaceOnUse"><stop
         stop-color="#21EFE3"
         offset="0%"
         id="stop13" /><stop
         stop-color="#2598FF"
         offset="100%"
         id="stop14" /></linearGradient><path
       d="m 25.135241,22.73235 0.186983,-0.07462 c 6.39315,-2.551328 13.669757,0.499535 16.252757,6.814293 2.583001,6.314759 -0.505736,13.502142 -6.898886,16.05347 -0.05343,-1.007011 -0.227731,-1.979458 -0.50829,-2.904343 3.429966,-1.856689 5.755521,-5.45605 5.755521,-9.591913 0,-6.036745 -4.9545,-10.930494 -11.066185,-10.930494 -1.305803,0 -2.558782,0.223396 -3.7219,0.633607 z"
       id="path-13" /><linearGradient
       x1="32.778084"
       y1="31.292349"
       x2="-5.737164"
       y2="34.564075"
       id="linearGradient-14"
       gradientTransform="scale(0.85441985,1.1703848)"
       gradientUnits="userSpaceOnUse"><stop
         stop-color="#A63FDB"
         offset="0%"
         id="stop15" /><stop
         stop-color="#FF257E"
         offset="100%"
         id="stop16" /></linearGradient><path
       d="m 10.654093,23.764822 0.186983,-0.07462 c 6.393149,-2.551328 13.669757,0.499535 16.252757,6.814293 2.583,6.314759 -0.505736,13.502142 -6.898886,16.05347 -0.05343,-1.007011 -0.227732,-1.979458 -0.50829,-2.904343 3.429966,-1.856689 5.75552,-5.45605 5.75552,-9.591913 0,-6.036745 -4.954499,-10.930493 -11.066184,-10.930493 -1.305803,0 -2.558782,0.223396 -3.7219,0.633606 z"
       id="path-15" /><path
       d="m 5.5458544,10.697205 0.1869826,-0.07462 c 6.39315,-2.5513278 13.669757,0.499535 16.252757,6.814294 2.583,6.314758 -0.505736,13.502141 -6.898886,16.053469 -0.05343,-1.007011 -0.227732,-1.979458 -0.50829,-2.904342 3.429966,-1.856689 5.755521,-5.45605 5.755521,-9.591914 0,-6.036745 -4.9545,-10.930493 -11.0661847,-10.930493 -1.3058034,0 -2.5587821,0.223396 -3.7218999,0.633606 z"
       id="path-16" /><path
       d="m 35.631732,42.373098 h 4.544831 c 4.281413,0 7.752184,-3.36365 7.752184,-7.512922 0,-4.149273 -3.470771,-7.512923 -7.752184,-7.512923 h -6.55954 c -2.470046,0 -4.472413,1.940568 -4.472413,4.334379 v 16.869977 z"
       id="path-17" /><filter
       x="-0.19165108"
       y="-0.16977644"
       width="1.3833021"
       height="1.386713"
       filterUnits="objectBoundingBox"
       id="filter-18"><feOffset
         dx="0"
         dy="1"
         in="SourceAlpha"
         result="shadowOffsetOuter1"
         id="feOffset16" /><feGaussianBlur
         stdDeviation="1.5"
         in="shadowOffsetOuter1"
         result="shadowBlurOuter1"
         id="feGaussianBlur16" /><feColorMatrix
         values="0 0 0 0 0   0 0 0 0 0   0 0 0 0 0  0 0 0 0.298686594 0"
         type="matrix"
         in="shadowBlurOuter1"
         id="feColorMatrix16" /></filter></defs><sodipodi:namedview
     id="namedview1"
     pagecolor="#505050"
     bordercolor="#eeeeee"
     borderopacity="1"
     inkscape:showpageshadow="0"
     inkscape:pageopacity="0"
     inkscape:pagecheckerboard="0"
     inkscape:deskcolor="#d1d1d1"
     inkscape:zoom="0.56623785"
     inkscape:cx="288.74792"
     inkscape:cy="279.03468"
     inkscape:window-width="1920"
     inkscape:window-height="1011"
     inkscape:window-x="0"
     inkscape:window-y="0"
     inkscape:window-maximized="1"
     inkscape:current-layer="svg1"
     showgrid="false" /><!--! Font Awesome Pro 6.4.2 by @fontawesome - https://fontawesome.com License - https://fontawesome.com/license (Commercial License) Copyright 2023 Fonticons, Inc. --><path
     id="path1"
     style="fill:#f6f5f4;stroke-width:0.641419"
     d="M 289.57422 16.970703 C 240.39875 16.970703 194.42924 29.372288 151.66797 54.173828 C 110.61714 78.547756 78.120141 111.25972 54.173828 152.31055 C 29.372288 194.64421 16.970703 240.50526 16.970703 289.89453 C 16.970703 339.28381 29.372288 385.14487 54.173828 427.47852 C 78.120141 468.52934 110.61714 501.0283 151.66797 524.97461 C 194.42924 549.77615 240.39875 562.17773 289.57422 562.17773 C 338.74968 562.17773 384.71725 549.77615 427.47852 524.97461 C 468.52934 501.0283 501.0283 468.52934 524.97461 427.47852 C 549.77615 385.14487 562.17773 339.28381 562.17773 289.89453 C 562.17773 240.50526 549.77615 194.64421 524.97461 152.31055 C 501.0283 111.25972 468.52934 78.547756 427.47852 54.173828 C 384.71725 29.372288 338.74968 16.970703 289.57422 16.970703 z M 273.81641 82.783203 C 286.23624 83.071376 298.30727 88.804596 307.87109 96.646484 C 325.39736 104.90056 330.91925 121.5279 334.92188 136.97266 C 340.69452 159.77454 343.45936 183.02199 347.76758 205.9375 C 355.60469 219.84739 354.71469 235.8914 359.12109 250.69922 C 359.43148 267.78131 370.08832 282.96704 371.91406 299.89062 C 372.48497 316.23359 382.74323 330.40909 385.42188 346.35156 C 389.25595 371.02797 389.85764 395.91751 386.09961 420.47852 C 379.74779 433.62822 378.56253 448.51025 375.76953 463.0293 C 382.18842 480.93106 363.96752 492.70164 346.47656 497.55273 C 314.2608 490.87346 280.76699 489.61442 247.88477 489.98242 C 230.70447 489.17323 205.50874 491.17049 196.23438 475.94336 C 195.31046 453.95776 198.50648 431.70166 193.77539 409.88672 C 180.58015 400.74126 184.00367 385.93185 181.72266 372.44141 C 179.73068 358.91833 180.24825 345.33167 178.99023 331.86523 C 188.60538 317.57263 184.35136 299.60178 187.21875 283.63086 C 195.27026 269.4769 192.70363 251.77939 194.85547 235.69727 C 198.71645 219.15402 204.7047 203.18866 215.25586 189.01562 C 221.4355 177.18116 224.9865 162.15705 222.09375 150.66797 C 223.37137 140.3606 229.00863 127.60479 236.85742 124.45312 C 236.15897 110.85991 241.88022 88.674704 256.86719 86.078125 C 262.45321 83.646264 268.17103 82.652216 273.81641 82.783203 z " /><metadata
     id="metadata1"><rdf:RDF><cc:Work
         rdf:about=""><cc:license
           rdf:resource="http://artlibre.org/licence/lal" /></cc:Work><cc:License
         rdf:about="http://artlibre.org/licence/lal"><cc:permits
           rdf:resource="http://creativecommons.org/ns#Reproduction" /><cc:permits
           rdf:resource="http://creativecommons.org/ns#Distribution" /><cc:permits
           rdf:resource="http://creativecommons.org/ns#DerivativeWorks" /><cc:requires
           rdf:resource="http://creativecommons.org/ns#ShareAlike" /><cc:requires
           rdf:resource="http://creativecommons.org/ns#Notice" /><cc:requires
           rdf:resource="http://creativecommons.org/ns#Attribution" /></cc:License></rdf:RDF></metadata></svg>
