<?xml version="1.0" encoding="UTF-8" standalone="no"?>
<svg
   viewBox="0 0 579.14796 579.14796"
   version="1.1"
   id="svg1"
   sodipodi:docname="pixelfed.svg"
   inkscape:version="1.3.1 (91b66b0783, 2023-11-16)"
   xml:space="preserve"
   width="579.14795"
   height="579.14795"
   xmlns:inkscape="http://www.inkscape.org/namespaces/inkscape"
   xmlns:sodipodi="http://sodipodi.sourceforge.net/DTD/sodipodi-0.dtd"
   xmlns="http://www.w3.org/2000/svg"
   xmlns:svg="http://www.w3.org/2000/svg"
   xmlns:rdf="http://www.w3.org/1999/02/22-rdf-syntax-ns#"
   xmlns:cc="http://creativecommons.org/ns#"><defs
     id="defs1"><rect
       id="path-1"
       x="0"
       y="0.11210762"
       width="50"
       height="49.775784" /><linearGradient
       x1="26.799479"
       y1="19.639755"
       x2="6.4907837"
       y2="20.515251"
       id="linearGradient-3"
       gradientTransform="scale(0.85441985,1.1703848)"
       gradientUnits="userSpaceOnUse"><stop
         stop-color="#FF5C34"
         offset="0%"
         id="stop1" /><stop
         stop-color="#EB0256"
         offset="100%"
         id="stop2" /></linearGradient><linearGradient
       x1="18.604218"
       y1="60.088772"
       x2="29.551889"
       y2="34.263325"
       id="linearGradient-4"
       gradientTransform="scale(1.2181633,0.82090802)"
       gradientUnits="userSpaceOnUse"><stop
         stop-color="#A63FDB"
         offset="0%"
         id="stop3" /><stop
         stop-color="#FF257E"
         offset="100%"
         id="stop4" /></linearGradient><linearGradient
       x1="31.906258"
       y1="22.861416"
       x2="56.143276"
       y2="28.198187"
       id="linearGradient-5"
       gradientTransform="scale(0.87861867,1.1381502)"
       gradientUnits="userSpaceOnUse"><stop
         stop-color="#00FFF0"
         offset="0%"
         id="stop5" /><stop
         stop-color="#0087FF"
         offset="100%"
         id="stop6" /></linearGradient><linearGradient
       x1="40.014423"
       y1="3.0503507"
       x2="21.610674"
       y2="22.693472"
       id="linearGradient-6"
       gradientTransform="scale(1.0479971,0.95420109)"
       gradientUnits="userSpaceOnUse"><stop
         stop-color="#17C934"
         offset="0%"
         id="stop7" /><stop
         stop-color="#03FF6E"
         offset="100%"
         id="stop8" /></linearGradient><linearGradient
       x1="0.5"
       y1="1.1191301"
       x2="0.30560157"
       y2="0"
       id="linearGradient-7"><stop
         stop-color="#FFB000"
         offset="0%"
         id="stop9" /><stop
         stop-color="#FF7725"
         offset="100%"
         id="stop10" /></linearGradient><path
       d="M 25.87962,24.663677 C 25.518751,17.862325 19.644178,12.637694 12.758394,12.994138 5.8726091,13.350581 0.58311968,19.153122 0.94398835,25.954474 l 0.010371,0.195465 c -0.0295871,-0.491682 -0.0445914,-0.987241 -0.0445914,-1.486262 0,-10.155941 6.21464645,-18.8781713 15.09259805,-22.6588956 l 0.523383,-0.2088675 c 6.393149,-2.55132802 13.669757,0.4995351 16.252757,6.8142936 2.583,6.3147585 -0.505736,13.5021415 -6.898886,16.0534695 z"
       id="path-8" /><path
       d="m 16.338766,1.8705335 0.186983,-0.07462 c 6.393149,-2.55132802 13.669757,0.4995351 16.252757,6.8142936 2.583,6.3147589 -0.505736,13.5021419 -6.898886,16.0534699 -0.05343,-1.007011 -0.227732,-1.979458 -0.50829,-2.904343 3.429966,-1.856689 5.75552,-5.45605 5.75552,-9.591913 0,-6.0367452 -4.954499,-10.9304937 -11.066184,-10.9304937 -1.305803,0 -2.558782,0.223396 -3.7219,0.6336062 z"
       id="path-9" /><linearGradient
       x1="16.690788"
       y1="19.195547"
       x2="57.873302"
       y2="21.720842"
       id="linearGradient-10"
       gradientTransform="scale(0.85441984,1.1703848)"
       gradientUnits="userSpaceOnUse"><stop
         stop-color="#9EE85D"
         offset="0%"
         id="stop11" /><stop
         stop-color="#0ED061"
         offset="100%"
         id="stop12" /></linearGradient><path
       d="m 28.379451,9.2701483 0.186983,-0.07462 c 6.393149,-2.551328 13.669757,0.4995351 16.252757,6.8142937 2.583,6.314759 -0.505736,13.502142 -6.898886,16.05347 -0.05343,-1.007011 -0.227732,-1.979458 -0.50829,-2.904343 3.429966,-1.856689 5.75552,-5.45605 5.75552,-9.591913 0,-6.036745 -4.954499,-10.9304939 -11.066184,-10.9304939 -1.305803,0 -2.558782,0.223396 -3.7219,0.6336062 z"
       id="path-11" /><linearGradient
       x1="38.66045"
       y1="42.313534"
       x2="29.417906"
       y2="17.769199"
       id="linearGradient-12"
       gradientTransform="scale(0.85441985,1.1703848)"
       gradientUnits="userSpaceOnUse"><stop
         stop-color="#21EFE3"
         offset="0%"
         id="stop13" /><stop
         stop-color="#2598FF"
         offset="100%"
         id="stop14" /></linearGradient><path
       d="m 25.135241,22.73235 0.186983,-0.07462 c 6.39315,-2.551328 13.669757,0.499535 16.252757,6.814293 2.583001,6.314759 -0.505736,13.502142 -6.898886,16.05347 -0.05343,-1.007011 -0.227731,-1.979458 -0.50829,-2.904343 3.429966,-1.856689 5.755521,-5.45605 5.755521,-9.591913 0,-6.036745 -4.9545,-10.930494 -11.066185,-10.930494 -1.305803,0 -2.558782,0.223396 -3.7219,0.633607 z"
       id="path-13" /><linearGradient
       x1="32.778084"
       y1="31.292349"
       x2="-5.737164"
       y2="34.564075"
       id="linearGradient-14"
       gradientTransform="scale(0.85441985,1.1703848)"
       gradientUnits="userSpaceOnUse"><stop
         stop-color="#A63FDB"
         offset="0%"
         id="stop15" /><stop
         stop-color="#FF257E"
         offset="100%"
         id="stop16" /></linearGradient><path
       d="m 10.654093,23.764822 0.186983,-0.07462 c 6.393149,-2.551328 13.669757,0.499535 16.252757,6.814293 2.583,6.314759 -0.505736,13.502142 -6.898886,16.05347 -0.05343,-1.007011 -0.227732,-1.979458 -0.50829,-2.904343 3.429966,-1.856689 5.75552,-5.45605 5.75552,-9.591913 0,-6.036745 -4.954499,-10.930493 -11.066184,-10.930493 -1.305803,0 -2.558782,0.223396 -3.7219,0.633606 z"
       id="path-15" /><path
       d="m 5.5458544,10.697205 0.1869826,-0.07462 c 6.39315,-2.5513278 13.669757,0.499535 16.252757,6.814294 2.583,6.314758 -0.505736,13.502141 -6.898886,16.053469 -0.05343,-1.007011 -0.227732,-1.979458 -0.50829,-2.904342 3.429966,-1.856689 5.755521,-5.45605 5.755521,-9.591914 0,-6.036745 -4.9545,-10.930493 -11.0661847,-10.930493 -1.3058034,0 -2.5587821,0.223396 -3.7218999,0.633606 z"
       id="path-16" /><path
       d="m 35.631732,42.373098 h 4.544831 c 4.281413,0 7.752184,-3.36365 7.752184,-7.512922 0,-4.149273 -3.470771,-7.512923 -7.752184,-7.512923 h -6.55954 c -2.470046,0 -4.472413,1.940568 -4.472413,4.334379 v 16.869977 z"
       id="path-17" /><filter
       x="-0.19165108"
       y="-0.16977644"
       width="1.3833021"
       height="1.386713"
       filterUnits="objectBoundingBox"
       id="filter-18"><feOffset
         dx="0"
         dy="1"
         in="SourceAlpha"
         result="shadowOffsetOuter1"
         id="feOffset16" /><feGaussianBlur
         stdDeviation="1.5"
         in="shadowOffsetOuter1"
         result="shadowBlurOuter1"
         id="feGaussianBlur16" /><feColorMatrix
         values="0 0 0 0 0   0 0 0 0 0   0 0 0 0 0  0 0 0 0.298686594 0"
         type="matrix"
         in="shadowBlurOuter1"
         id="feColorMatrix16" /></filter></defs><sodipodi:namedview
     id="namedview1"
     pagecolor="#505050"
     bordercolor="#eeeeee"
     borderopacity="1"
     inkscape:showpageshadow="0"
     inkscape:pageopacity="0"
     inkscape:pagecheckerboard="0"
     inkscape:deskcolor="#d1d1d1"
     inkscape:zoom="0.56623785"
     inkscape:cx="286.09885"
     inkscape:cy="279.03468"
     inkscape:window-width="1920"
     inkscape:window-height="1016"
     inkscape:window-x="0"
     inkscape:window-y="0"
     inkscape:window-maximized="1"
     inkscape:current-layer="svg1" /><!--! Font Awesome Pro 6.4.2 by @fontawesome - https://fontawesome.com License - https://fontawesome.com/license (Commercial License) Copyright 2023 Fonticons, Inc. --><path
     fill="#000000"
     d="m 289.57397,16.970563 q -73.76328,0 -137.90525,37.202348 -61.576304,36.560928 -97.49581,98.137239 -37.202347,63.50056 -37.202347,137.58454 0,74.08399 37.202347,137.58453 35.919506,61.57631 97.49581,97.49581 64.14197,37.20236 137.90525,37.20236 73.76327,0 137.90524,-37.20236 61.57631,-35.9195 97.49581,-97.49581 37.20236,-63.50054 37.20236,-137.58453 0,-74.08398 -37.20236,-137.58454 Q 489.05552,90.733839 427.47921,54.172911 363.33724,16.970563 289.57397,16.970563 Z M 245.95743,183.09829 h 71.83901 q 23.09111,0 42.6544,11.22485 19.56332,11.22485 31.10886,30.14673 11.54557,18.92189 11.54557,41.69229 0,22.7704 -11.54557,41.69228 -11.54554,18.92189 -31.10886,30.14675 -19.56329,11.22483 -42.6544,11.22483 H 267.7657 l -71.1976,67.99049 V 231.20478 q 0,-19.884 14.43194,-33.99524 14.43195,-14.11125 34.95739,-14.11125 z"
     id="path1"
     style="fill:#f6f5f4;stroke-width:0.641419" /><metadata
     id="metadata1"><rdf:RDF><cc:Work
         rdf:about=""><cc:license
           rdf:resource="http://artlibre.org/licence/lal" /></cc:Work><cc:License
         rdf:about="http://artlibre.org/licence/lal"><cc:permits
           rdf:resource="http://creativecommons.org/ns#Reproduction" /><cc:permits
           rdf:resource="http://creativecommons.org/ns#Distribution" /><cc:permits
           rdf:resource="http://creativecommons.org/ns#DerivativeWorks" /><cc:requires
           rdf:resource="http://creativecommons.org/ns#ShareAlike" /><cc:requires
           rdf:resource="http://creativecommons.org/ns#Notice" /><cc:requires
           rdf:resource="http://creativecommons.org/ns#Attribution" /></cc:License></rdf:RDF></metadata></svg>
