<?xml version="1.0" encoding="UTF-8" standalone="no"?>
<svg
   viewBox="0 0 682.66669 682.66669"
   height="682.66669"
   width="682.66669"
   xml:space="preserve"
   id="svg2"
   version="1.1"
   sodipodi:docname="bandcamp.svg"
   inkscape:version="1.3.2 (091e20ef0f, 2023-11-25)"
   xmlns:inkscape="http://www.inkscape.org/namespaces/inkscape"
   xmlns:sodipodi="http://sodipodi.sourceforge.net/DTD/sodipodi-0.dtd"
   xmlns="http://www.w3.org/2000/svg"
   xmlns:svg="http://www.w3.org/2000/svg"
   xmlns:rdf="http://www.w3.org/1999/02/22-rdf-syntax-ns#"
   xmlns:cc="http://creativecommons.org/ns#"
   xmlns:dc="http://purl.org/dc/elements/1.1/"><sodipodi:namedview
     id="namedview1"
     pagecolor="#505050"
     bordercolor="#eeeeee"
     borderopacity="1"
     inkscape:showpageshadow="0"
     inkscape:pageopacity="0"
     inkscape:pagecheckerboard="0"
     inkscape:deskcolor="#d1d1d1"
     inkscape:zoom="0.60058592"
     inkscape:cx="341.33334"
     inkscape:cy="341.33334"
     inkscape:window-width="1920"
     inkscape:window-height="1016"
     inkscape:window-x="0"
     inkscape:window-y="0"
     inkscape:window-maximized="1"
     inkscape:current-layer="svg2" /><metadata
     id="metadata8"><rdf:RDF><cc:Work
         rdf:about=""><dc:format>image/svg+xml</dc:format><dc:type
           rdf:resource="http://purl.org/dc/dcmitype/StillImage" /></cc:Work></rdf:RDF></metadata><defs
     id="defs6"><clipPath
       id="clipPath20"
       clipPathUnits="userSpaceOnUse"><path
         style="clip-rule:evenodd"
         id="path18"
         d="M 2560,0 C 3973.85,0 5120,1146.15 5120,2560 5120,3973.85 3973.85,5120 2560,5120 1146.15,5120 0,3973.85 0,2560 0,1146.15 1146.15,0 2560,0 Z" /></clipPath><clipPath
       id="clipPath26"
       clipPathUnits="userSpaceOnUse"><path
         id="path24"
         d="M 0,0 H 5120 V 5120 H 0 Z" /></clipPath><clipPath
       id="clipPath36"
       clipPathUnits="userSpaceOnUse"><path
         style="clip-rule:evenodd"
         id="path34"
         d="M 3057.78,1754.95 H 1189.97 l 872.23,1610.1 h 1867.83 l -872.25,-1610.1" /></clipPath><clipPath
       id="clipPath42"
       clipPathUnits="userSpaceOnUse"><path
         id="path40"
         d="M 0,0 H 5120 V 5120 H 0 Z" /></clipPath></defs><path
     style="fill:#0d4334;stroke-width:0.969771;fill-opacity:1"
     d="M 320.12782,671.69267 C 250.77549,666.22523 186.58142,639.72878 132.98627,594.44895 123.10684,586.10231 105.27313,568.36527 96.883561,558.54193 16.839778,464.81873 -4.0925984,335.67969 42.244662,221.45572 65.069081,165.19222 104.92279,114.85871 155.01304,79.034113 235.1452,21.723514 336.07699,3.7620414 432.19228,29.708253 c 30.46479,8.223933 64.13059,23.386688 91.39193,41.162057 18.97833,12.374527 35.65829,25.911945 52.20541,42.36981 12.46515,12.39793 21.19813,22.3412 30.62566,34.87003 38.37443,50.99786 60.34237,109.45745 65.26309,173.67367 0.8436,11.00839 0.8438,35.50193 5.8e-4,47.05737 -2.41376,33.07502 -9.987,66.31458 -22.15704,97.24962 -4.14946,10.54753 -14.29686,31.6211 -20.02519,41.58701 -40.41455,70.31263 -105.36099,123.3215 -182.16019,148.67804 -23.9454,7.90596 -51.6858,13.37001 -78.23195,15.40941 -10.04207,0.77147 -38.81098,0.72883 -48.97676,-0.0727 z M 464.54619,345.80839 c 30.51735,-56.30242 55.49351,-102.58472 55.50262,-102.84955 0.0101,-0.26485 -53.72299,-0.4088 -119.40462,-0.3199 l -119.42118,0.16162 -55.30336,102.04812 c -30.41685,56.12647 -55.45181,102.40877 -55.63326,102.84955 -0.26374,0.6407 23.64709,0.76902 119.22187,0.63981 l 119.55177,-0.16162 z"
     id="path1" /></svg>
