<?xml version="1.0" encoding="UTF-8" standalone="no"?>
<svg
   viewBox="0 0 682.66669 682.66669"
   height="682.66669"
   width="682.66669"
   xml:space="preserve"
   id="svg2"
   version="1.1"
   sodipodi:docname="discogs.svg"
   inkscape:version="1.3.2 (091e20ef0f, 2023-11-25)"
   xmlns:inkscape="http://www.inkscape.org/namespaces/inkscape"
   xmlns:sodipodi="http://sodipodi.sourceforge.net/DTD/sodipodi-0.dtd"
   xmlns="http://www.w3.org/2000/svg"
   xmlns:svg="http://www.w3.org/2000/svg"
   xmlns:rdf="http://www.w3.org/1999/02/22-rdf-syntax-ns#"
   xmlns:cc="http://creativecommons.org/ns#"
   xmlns:dc="http://purl.org/dc/elements/1.1/"><sodipodi:namedview
     id="namedview1"
     pagecolor="#505050"
     bordercolor="#eeeeee"
     borderopacity="1"
     inkscape:showpageshadow="0"
     inkscape:pageopacity="0"
     inkscape:pagecheckerboard="0"
     inkscape:deskcolor="#d1d1d1"
     inkscape:zoom="0.60058592"
     inkscape:cx="341.33334"
     inkscape:cy="341.33334"
     inkscape:window-width="1920"
     inkscape:window-height="1016"
     inkscape:window-x="0"
     inkscape:window-y="0"
     inkscape:window-maximized="1"
     inkscape:current-layer="svg2" /><metadata
     id="metadata8"><rdf:RDF><cc:Work
         rdf:about=""><dc:format>image/svg+xml</dc:format><dc:type
           rdf:resource="http://purl.org/dc/dcmitype/StillImage" /></cc:Work></rdf:RDF></metadata><defs
     id="defs6"><clipPath
       id="clipPath20"
       clipPathUnits="userSpaceOnUse"><path
         style="clip-rule:evenodd"
         id="path18"
         d="M 2560,0 C 3973.85,0 5120,1146.15 5120,2560 5120,3973.85 3973.85,5120 2560,5120 1146.15,5120 0,3973.85 0,2560 0,1146.15 1146.15,0 2560,0 Z" /></clipPath><clipPath
       id="clipPath26"
       clipPathUnits="userSpaceOnUse"><path
         id="path24"
         d="M 0,0 H 5120 V 5120 H 0 Z" /></clipPath><clipPath
       id="clipPath36"
       clipPathUnits="userSpaceOnUse"><path
         style="clip-rule:evenodd"
         id="path34"
         d="M 3057.78,1754.95 H 1189.97 l 872.23,1610.1 h 1867.83 l -872.25,-1610.1" /></clipPath><clipPath
       id="clipPath42"
       clipPathUnits="userSpaceOnUse"><path
         id="path40"
         d="M 0,0 H 5120 V 5120 H 0 Z" /></clipPath></defs><style
     type="text/css"
     id="style1">
	.st0{fill:#231F20;}
</style><g
     id="g1"
     transform="matrix(6.0661912,0,0,6.0661912,13.218485,12.005696)"
     style="fill:#1d1b2f;fill-opacity:1"><path
       class="st0"
       d="m 54.2,0.1 c -0.2,0 -0.3,0 -0.5,-0.1 0.2,0.1 0.4,0.1 0.5,0.1 z"
       id="path1-3"
       style="fill:#1d1b2f;fill-opacity:1" /><g
       id="g3"
       style="fill:#1d1b2f;fill-opacity:1">
	<path
   d="m 34.3,54.2 c 0,-11.1 9,-20.1 20.1,-20.1 3.7,0 7.1,1 10,2.7 l 4,-7.2 c -4.1,-2.4 -8.9,-3.7 -14,-3.7 -7.8,0 -14.9,3.2 -20,8.3 -5.1,5.1 -8.3,12.2 -8.3,20 0,7.8 3.1,14.9 8.3,20 0.1,0.1 0.3,0.3 0.4,0.4 l 5.6,-6 c 0,0 0,0 0.1,0.1 C 36.6,65 34.3,59.9 34.3,54.2 Z"
   id="path2"
   style="fill:#1d1b2f;fill-opacity:1" />
	<path
   d="m 74.4,34.4 -5.6,6 c 3.4,3.6 5.5,8.5 5.5,13.8 0,11.1 -9,20.1 -20,20.1 -3.4,0 -6.5,-0.8 -9.3,-2.3 v 0 l -4,7.2 c 4,2.1 8.5,3.3 13.3,3.3 7.8,0 14.9,-3.2 20,-8.3 5.1,-5.1 8.3,-12.2 8.3,-20 0,-7.7 -3.1,-14.7 -8.2,-19.8 z"
   id="path3"
   style="fill:#1d1b2f;fill-opacity:1" />
</g><path
       d="m 38.9,54.2 c 0,-8.5 6.9,-15.4 15.4,-15.4 v 0 c 8.5,0 15.4,6.9 15.4,15.4 v 0 c 0,8.5 -6.9,15.4 -15.4,15.4 v 0 c -8.5,0 -15.4,-6.9 -15.4,-15.4 z m 0.7,0 c 0,8.1 6.6,14.7 14.7,14.7 v 0 C 62.4,68.9 69,62.3 69,54.2 v 0 C 69,46.1 62.4,39.5 54.3,39.5 v 0 c -8.1,0 -14.7,6.6 -14.7,14.7 z"
       id="path4"
       style="fill:#1d1b2f;fill-opacity:1" /><path
       d="m 56.7,54.2 c 0,1.3 -1.1,2.4 -2.4,2.4 -1.3,0 -2.4,-1.1 -2.4,-2.4 0,-1.3 1.1,-2.4 2.4,-2.4 1.4,0 2.4,1.1 2.4,2.4 z"
       id="path5"
       style="fill:#1d1b2f;fill-opacity:1" /><g
       id="g7"
       style="fill:#1d1b2f;fill-opacity:1">
	<path
   d="m 28.8,81.1 5.7,-6.2 c -5.4,-5.2 -8.8,-12.5 -8.8,-20.7 0,-15.9 12.8,-28.7 28.7,-28.7 5.2,0 10,1.4 14.2,3.8 l 4,-7.4 C 67.2,18.9 61,17.1 54.4,17.1 44.2,17.1 34.9,21.3 28.2,28 21.5,34.7 17.3,44 17.3,54.2 c 0,10.2 4.1,19.5 10.9,26.2 0.1,0.2 0.3,0.5 0.6,0.7 z"
   id="path6"
   style="fill:#1d1b2f;fill-opacity:1" />
	<path
   d="m 80.5,28 c 0,0 0,-0.1 0,0 l -5.8,6.1 C 79.8,39.3 83,46.4 83,54.2 83,70 70.2,82.9 54.3,82.9 c -4.9,0 -9.5,-1.2 -13.5,-3.4 l -4.1,7.3 c 5.3,2.9 11.3,4.5 17.7,4.5 10.2,0 19.5,-4.2 26.2,-10.9 6.7,-6.7 10.9,-16 10.9,-26.2 C 91.4,44 87.2,34.7 80.5,28 Z"
   id="path7"
   style="fill:#1d1b2f;fill-opacity:1" />
</g><g
       id="g9"
       style="fill:#1d1b2f;fill-opacity:1">
	<path
   d="m 86.8,21.7 c -0.1,-0.1 -0.2,-0.2 -0.3,-0.3 l -5.7,6.2 c 6.8,6.8 11.1,16.2 11.1,26.6 0,20.7 -16.8,37.5 -37.5,37.5 -6.5,0 -12.6,-1.6 -17.9,-4.5 l -4.1,7.3 c 6.5,3.6 14,5.6 22,5.6 12.7,0 24.2,-5.1 32.5,-13.5 8.3,-8.3 13.4,-19.8 13.4,-32.5 C 100.2,41.5 95.1,30 86.8,21.7 Z"
   id="path8"
   style="fill:#1d1b2f;fill-opacity:1" />
	<path
   d="m 22.7,87.6 5.7,-6.2 C 21.2,74.6 16.7,64.9 16.7,54.2 c 0,-20.7 16.8,-37.5 37.5,-37.5 6.7,0 13,1.8 18.4,4.8 l 4,-7.4 C 70,10.4 62.3,8.2 54.1,8.2 41.4,8.2 29.9,13.3 21.6,21.7 13.5,30 8.4,41.5 8.4,54.2 c 0,12.7 5.2,24.2 13.5,32.5 0.2,0.3 0.5,0.6 0.8,0.9 z"
   id="path9"
   style="fill:#1d1b2f;fill-opacity:1" />
</g><g
       id="g12"
       style="fill:#1d1b2f;fill-opacity:1">
	<path
   class="st0"
   d="M 17.1,93.7"
   id="path10"
   style="fill:#1d1b2f;fill-opacity:1" />
	<path
   class="st0"
   d="M 28.2,101.8"
   id="path11"
   style="fill:#1d1b2f;fill-opacity:1" />
	<path
   d="m 92,15.5 -5.2,5.6 c 8.6,8.4 13.9,20.1 13.9,33.1 0,25.6 -20.8,46.4 -46.4,46.4 -8.1,0 -15.6,-2.1 -22.2,-5.7 l -3.9,6.9 c 7.7,4.2 16.6,6.7 26,6.7 29.9,0 54.2,-24.3 54.2,-54.2 0,-15.2 -6.3,-29 -16.4,-38.8 z"
   id="path12"
   style="fill:#1d1b2f;fill-opacity:1" />
</g><path
       d="M 55.1,0.1 H 54.2 C 24.5,0.1 0.3,24.1 0,53.8 v 0 0.5 c 0,15.5 6.6,29.5 17.1,39.4 l 5.4,-5.8 C 13.5,79.4 7.9,67.5 7.9,54.2 7.9,28.6 28.7,7.8 54.3,7.8 c 8.2,0 16,2.2 22.7,5.9 L 80.7,7 C 73.1,2.7 64.4,0.2 55.1,0.1 Z"
       id="path13"
       style="fill:#1d1b2f;fill-opacity:1" /></g></svg>
