<?xml version="1.0" encoding="UTF-8" standalone="no"?>
<svg
   viewBox="0 0 448 512"
   version="1.1"
   id="svg1"
   sodipodi:docname="instagram.svg"
   inkscape:version="1.3.2 (091e20ef0f, 2023-11-25)"
   width="100%"
   height="100%"
   xmlns:inkscape="http://www.inkscape.org/namespaces/inkscape"
   xmlns:sodipodi="http://sodipodi.sourceforge.net/DTD/sodipodi-0.dtd"
   xmlns="http://www.w3.org/2000/svg"
   xmlns:svg="http://www.w3.org/2000/svg">
  <defs
     id="defs1" />
  <sodipodi:namedview
     id="namedview1"
     pagecolor="#505050"
     bordercolor="#eeeeee"
     borderopacity="1"
     inkscape:showpageshadow="0"
     inkscape:pageopacity="0"
     inkscape:pagecheckerboard="0"
     inkscape:deskcolor="#d1d1d1"
     inkscape:zoom="1.6015625"
     inkscape:cx="224.1561"
     inkscape:cy="256"
     inkscape:window-width="1920"
     inkscape:window-height="1016"
     inkscape:window-x="0"
     inkscape:window-y="0"
     inkscape:window-maximized="1"
     inkscape:current-layer="svg1" />
  <!--! Font Awesome Pro 6.4.2 by @fontawesome - https://fontawesome.com License - https://fontawesome.com/license (Commercial License) Copyright 2023 Fonticons, Inc. -->
  <path
     d="m 224.1,141 c -63.6,0 -114.9,51.3 -114.9,114.9 0,63.6 51.3,114.9 114.9,114.9 C 287.7,370.8 339,319.5 339,255.9 339,192.3 287.7,141 224.1,141 Z m 0,189.6 c -41.1,0 -74.7,-33.5 -74.7,-74.7 0,-41.2 33.5,-74.7 74.7,-74.7 41.2,0 74.7,33.5 74.7,74.7 0,41.2 -33.6,74.7 -74.7,74.7 z M 370.5,136.3 c 0,14.9 -12,26.8 -26.8,26.8 -14.9,0 -26.8,-12 -26.8,-26.8 0,-14.8 12,-26.8 26.8,-26.8 14.8,0 26.8,12 26.8,26.8 z m 76.1,27.2 c -1.7,-35.9 -9.9,-67.7 -36.2,-93.9 -26.2,-26.2 -58,-34.4 -93.9,-36.2 -37,-2.1 -147.9,-2.1 -184.9,0 -35.8,1.7 -67.6,9.9 -93.9,36.1 -26.3,26.2 -34.4,58 -36.2,93.9 -2.1,37 -2.1,147.9 0,184.9 1.7,35.9 9.9,67.7 36.2,93.9 26.3,26.2 58,34.4 93.9,36.2 37,2.1 147.9,2.1 184.9,0 35.9,-1.7 67.7,-9.9 93.9,-36.2 26.2,-26.2 34.4,-58 36.2,-93.9 2.1,-37 2.1,-147.8 0,-184.8 z M 398.8,388 c -7.8,19.6 -22.9,34.7 -42.6,42.6 -29.5,11.7 -99.5,9 -132.1,9 -32.6,0 -102.7,2.6 -132.1,-9 -19.6,-7.8 -34.7,-22.9 -42.6,-42.6 -11.7,-29.5 -9,-99.5 -9,-132.1 0,-32.6 -2.6,-102.7 9,-132.1 7.8,-19.6 22.9,-34.7 42.6,-42.6 29.5,-11.7 99.5,-9 132.1,-9 32.6,0 102.7,-2.6 132.1,9 19.6,7.8 34.7,22.9 42.6,42.6 11.7,29.5 9,99.5 9,132.1 0,32.6 2.7,102.7 -9,132.1 z"
     id="path1"
     style="fill:#86101e;fill-opacity:1" />
</svg>
