<?xml version="1.0" encoding="UTF-8" standalone="no"?>
<svg
   viewBox="0 0 448 512"
   version="1.1"
   id="svg1"
   sodipodi:docname="mastodon.svg"
   inkscape:version="1.3.2 (091e20ef0f, 2023-11-25)"
   width="100%"
   height="100%"
   xmlns:inkscape="http://www.inkscape.org/namespaces/inkscape"
   xmlns:sodipodi="http://sodipodi.sourceforge.net/DTD/sodipodi-0.dtd"
   xmlns="http://www.w3.org/2000/svg"
   xmlns:svg="http://www.w3.org/2000/svg">
  <defs
     id="defs1" />
  <sodipodi:namedview
     id="namedview1"
     pagecolor="#505050"
     bordercolor="#eeeeee"
     borderopacity="1"
     inkscape:showpageshadow="0"
     inkscape:pageopacity="0"
     inkscape:pagecheckerboard="0"
     inkscape:deskcolor="#d1d1d1"
     inkscape:zoom="1.6015625"
     inkscape:cx="224.1561"
     inkscape:cy="256"
     inkscape:window-width="1920"
     inkscape:window-height="1016"
     inkscape:window-x="0"
     inkscape:window-y="0"
     inkscape:window-maximized="1"
     inkscape:current-layer="svg1" />
  <!--! Font Awesome Pro 6.4.2 by @fontawesome - https://fontawesome.com License - https://fontawesome.com/license (Commercial License) Copyright 2023 Fonticons, Inc. -->
  <path
     d="m 433,179.11 c 0,-97.2 -63.71,-125.7 -63.71,-125.7 -62.52,-28.7 -228.56,-28.4 -290.48,0 0,0 -63.72,28.5 -63.72,125.7 0,115.7 -6.6,259.4 105.63,289.1 40.51,10.7 75.32,13 103.33,11.4 50.81,-2.8 79.32,-18.1 79.32,-18.1 l -1.7,-36.9 c 0,0 -36.31,11.4 -77.12,10.1 -40.41,-1.4 -83,-4.4 -89.63,-54 a 102.54,102.54 0 0 1 -0.9,-13.9 c 85.63,20.9 158.65,9.1 178.75,6.7 56.12,-6.7 105,-41.3 111.23,-72.9 9.8,-49.8 9,-121.5 9,-121.5 z m -75.12,125.2 h -46.63 v -114.2 c 0,-49.7 -64,-51.6 -64,6.9 v 62.5 H 200.92 V 197 c 0,-58.5 -64,-56.6 -64,-6.9 V 304.3 H 90.19 c 0,-122.1 -5.2,-147.9 18.41,-175 25.9,-28.9 79.82,-30.8 103.83,6.1 l 11.6,19.5 11.6,-19.5 c 24.11,-37.1 78.12,-34.8 103.83,-6.1 23.71,27.3 18.4,53 18.4,175 z"
     id="path1"
     style="fill:#233563;fill-opacity:1" />
</svg>
