<?xml version="1.0" encoding="UTF-8" standalone="no"?>
<svg
   viewBox="0 0 496 512"
   version="1.1"
   id="svg1"
   sodipodi:docname="matrix.svg"
   inkscape:version="1.3.2 (091e20ef0f, 2023-11-25)"
   xml:space="preserve"
   width="100%"
   height="100%"
   xmlns:inkscape="http://www.inkscape.org/namespaces/inkscape"
   xmlns:sodipodi="http://sodipodi.sourceforge.net/DTD/sodipodi-0.dtd"
   xmlns="http://www.w3.org/2000/svg"
   xmlns:svg="http://www.w3.org/2000/svg"><defs
     id="defs1"><rect
       x="95.97805"
       y="128.53415"
       width="328.19025"
       height="294.52682"
       id="rect1" /></defs><sodipodi:namedview
     id="namedview1"
     pagecolor="#505050"
     bordercolor="#eeeeee"
     borderopacity="1"
     inkscape:showpageshadow="0"
     inkscape:pageopacity="0"
     inkscape:pagecheckerboard="0"
     inkscape:deskcolor="#d1d1d1"
     inkscape:zoom="1.1324757"
     inkscape:cx="271.08749"
     inkscape:cy="363.80472"
     inkscape:window-width="1920"
     inkscape:window-height="1016"
     inkscape:window-x="0"
     inkscape:window-y="0"
     inkscape:window-maximized="1"
     inkscape:current-layer="svg1" /><!--! Font Awesome Pro 6.4.2 by @fontawesome - https://fontawesome.com License - https://fontawesome.com/license (Commercial License) Copyright 2023 Fonticons, Inc. --><path
     id="path2"
     style="fill:#311f1f;stroke-width:15.4866;stroke-linecap:square;stroke-linejoin:round;paint-order:markers stroke fill;fill-opacity:1"
     d="M 247.68555,10.345703 C 112.73286,10.345787 3.3321157,119.74653 3.3320312,254.69922 3.3321196,389.6519 112.73287,499.05265 247.68555,499.05273 382.63823,499.05264 492.03897,389.6519 492.03906,254.69922 492.03898,119.74654 382.63823,10.345791 247.68555,10.345703 Z M 67.384766,122.96094 h 65.349614 v 19.70117 H 97.978516 v 225.03711 h 34.755864 v 18.74023 H 67.384766 Z m 293.412114,0 h 65.1875 v 263.47851 h -65.1875 v -19.70117 h 34.75585 V 141.70117 h -34.75585 z m -139.11329,65.58789 c 8.41221,0 16.08733,1.582 23.03907,4.74414 6.95175,3.15086 12.23347,8.70655 15.83203,16.67969 3.94905,-5.6467 9.29971,-10.62733 16.08789,-14.94141 6.77649,-4.32538 14.79158,-6.48242 24.06836,-6.48242 7.03352,0 13.55322,0.83553 19.55859,2.48437 6.00538,1.67141 11.14575,4.32533 15.44531,7.98438 4.27622,3.64775 7.63031,8.42519 10.03711,14.32031 2.39515,5.89514 3.59766,12.98733 3.59766,21.31055 v 86.20312 h -36.5332 v -73.00195 c 0,-4.32537 -0.1768,-8.39029 -0.51563,-12.21875 -0.24466,-3.46948 -1.20484,-6.85657 -2.82617,-9.96094 -1.5557,-2.83243 -3.92616,-5.16945 -6.82422,-6.73047 -3.00269,-1.64883 -7.07996,-2.48437 -12.23242,-2.48437 -5.14079,0 -9.30057,0.96013 -12.47852,2.85742 -3.17793,1.91987 -5.66558,4.40477 -7.46484,7.47656 -1.85932,3.24439 -3.08054,6.79396 -3.59961,10.46875 -0.60696,3.91787 -0.91039,7.8744 -0.91016,11.83594 v 71.75781 H 229.41797 V 248.5957 c 0,-3.81715 -0.0826,-7.59976 -0.24609,-11.33789 -0.13262,-3.54222 -0.87367,-7.03933 -2.19532,-10.3457 -1.26126,-3.12395 -3.50978,-5.78281 -6.42578,-7.59961 -3.01437,-1.89729 -7.43159,-2.85742 -13.26172,-2.85742 -2.31486,0.0938 -4.60685,0.47335 -6.82226,1.1289 -3.01882,0.84091 -5.82514,2.28015 -8.23828,4.22461 -2.66388,2.07798 -4.92954,5.07058 -6.82227,8.9668 -1.88108,3.90753 -2.82813,9.01123 -2.82813,15.32422 v 74.75195 H 146.01953 V 191.99414 l 34.49024,0.0449 v 17.4375 h 0.51562 c 4.49252,-6.36638 10.43566,-11.65355 17.37305,-15.45117 6.77649,-3.64777 14.54582,-5.47656 23.28515,-5.47656 z"
     sodipodi:nodetypes="cccccccccccccccccccccccscccscccsccscccsccccccscccccccscccccccss" /></svg>
