<?xml version="1.0" encoding="UTF-8" standalone="no"?>
<svg
   viewBox="0 0 393.43994 393.49402"
   version="1.1"
   id="svg1"
   sodipodi:docname="wikimedia.svg"
   inkscape:version="1.3.2 (091e20ef0f, 2023-11-25)"
   xml:space="preserve"
   width="393.43994"
   height="393.49402"
   xmlns:inkscape="http://www.inkscape.org/namespaces/inkscape"
   xmlns:sodipodi="http://sodipodi.sourceforge.net/DTD/sodipodi-0.dtd"
   xmlns="http://www.w3.org/2000/svg"
   xmlns:svg="http://www.w3.org/2000/svg"><defs
     id="defs1"><clipPath
       id="m"><path
         d="M 1,-2 V 10 H -1 V -2 l -15,-15 v 33 h 32 v -33 z"
         id="path1" /></clipPath></defs><sodipodi:namedview
     id="namedview1"
     pagecolor="#505050"
     bordercolor="#eeeeee"
     borderopacity="1"
     inkscape:showpageshadow="0"
     inkscape:pageopacity="0"
     inkscape:pagecheckerboard="0"
     inkscape:deskcolor="#d1d1d1"
     inkscape:zoom="1.1324757"
     inkscape:cx="195.14768"
     inkscape:cy="231.35154"
     inkscape:window-width="1920"
     inkscape:window-height="1016"
     inkscape:window-x="0"
     inkscape:window-y="0"
     inkscape:window-maximized="1"
     inkscape:current-layer="svg1" /><!--! Font Awesome Pro 6.4.2 by @fontawesome - https://fontawesome.com License - https://fontawesome.com/license (Commercial License) Copyright 2023 Fonticons, Inc. --><path
     style="fill:#28593f;stroke-width:1.05395;fill-opacity:1"
     d="M 187.19909,384.99988 C 174.02707,383.9941 165.87123,382.8936 156.69754,380.88423 125.18009,373.9808 96.432205,359.3603 71.692972,337.65293 63.374256,330.3537 53.333311,319.45363 46.264391,310.04863 0.00442241,248.50098 -4.2211607,165.10746 35.58609,99.308508 43.813238,85.709531 52.938279,74.177287 64.779731,62.413517 l 5.036871,-5.003821 17.758365,17.763563 17.758353,17.763559 -6.394009,6.478022 c -11.317879,11.46657 -18.877717,21.94098 -25.785964,35.72726 -15.695443,31.32225 -18.792203,67.83739 -8.623698,101.68527 6.627906,22.06231 19.086951,42.4739 35.950691,58.89786 21.67264,21.10746 48.41806,34.06761 78.73426,38.15265 8.6186,1.16134 25.54908,1.25078 33.89658,0.17906 31.1442,-3.9985 58.11343,-16.90814 80.03805,-38.31264 22.5947,-22.0587 36.5082,-49.82594 40.76722,-81.35949 1.24988,-9.25399 1.24988,-25.95275 0,-35.20675 -4.23857,-31.38204 -18.00716,-58.96507 -40.49223,-81.119252 l -5.16174,-5.085796 17.78197,-17.800501 17.78197,-17.800514 6.87492,6.985716 c 15.10556,15.34898 25.39418,29.739264 34.88937,48.798377 10.45737,20.99043 16.59365,42.656 18.9591,66.93953 0.64225,6.5933 0.6426,26.79832 5.9e-4,33.28505 -3.08918,31.21171 -12.56418,59.02728 -28.8497,84.69343 -13.32451,20.99959 -32.6727,40.89536 -53.2048,54.7106 -26.63674,17.9228 -56.18214,28.50571 -88.4032,31.66524 -4.2829,0.41998 -23.46003,0.81212 -26.89361,0.54994 z M 177.77653,308.2445 C 154.67196,304.18288 133.19679,293.01024 116.7261,276.48252 78.966424,238.59207 72.960316,179.35034 102.35679,134.7495 c 4.5783,-6.94628 9.00672,-12.31943 15.31458,-18.58171 l 5.46887,-5.42933 30.55715,30.55526 30.55716,30.55526 v 68.60907 68.60905 l -1.07968,-0.0317 c -0.59382,-0.0174 -3.02307,-0.37334 -5.39834,-0.7909 z m 31.60488,-67.78645 v -68.60907 l 30.55715,-30.55526 30.55715,-30.55526 5.46888,5.42933 c 15.43077,15.31924 25.49679,32.95187 30.57807,53.56354 13.98508,56.72906 -17.58742,114.78026 -72.8196,133.8907 -7.02091,2.42924 -20.08957,5.44507 -23.59545,5.44507 -0.73035,0 -0.7462,-1.45745 -0.7462,-68.60905 z M 189.39125,133.52003 c -13.66716,-1.63427 -27.19212,-8.23346 -36.93923,-18.02363 -16.71866,-16.792534 -22.60851,-41.309944 -15.29459,-63.666117 6.83499,-20.892273 23.22324,-36.186529 44.51219,-41.540798 16.41416,-4.1282508 33.90604,-1.3920787 48.32366,7.559039 11.10861,6.896715 20.14751,17.62922 24.90342,29.569563 11.19992,28.118839 1.57288,59.348693 -23.44927,76.068793 -6.66349,4.45264 -15.77176,8.10329 -23.63645,9.47363 -4.60691,0.80271 -13.99987,1.08803 -18.41973,0.55952 z"
     id="path2" /></svg>
