<?xml version="1.0" encoding="UTF-8" standalone="no"?>
<!-- Created with Inkscape (http://www.inkscape.org/) -->

<svg
   width="302.18936mm"
   height="57.774506mm"
   viewBox="0 0 302.18937 57.774506"
   version="1.1"
   id="svg1"
   inkscape:version="1.3 (0e150ed6c4, 2023-07-21)"
   sodipodi:docname="Gnomon.svg"
   inkscape:export-filename="gnomon.png"
   inkscape:export-xdpi="96"
   inkscape:export-ydpi="96"
   xmlns:inkscape="http://www.inkscape.org/namespaces/inkscape"
   xmlns:sodipodi="http://sodipodi.sourceforge.net/DTD/sodipodi-0.dtd"
   xmlns="http://www.w3.org/2000/svg"
   xmlns:svg="http://www.w3.org/2000/svg">
  <sodipodi:namedview
     id="namedview1"
     pagecolor="#505050"
     bordercolor="#eeeeee"
     borderopacity="1"
     inkscape:showpageshadow="0"
     inkscape:pageopacity="0"
     inkscape:pagecheckerboard="0"
     inkscape:deskcolor="#d1d1d1"
     inkscape:document-units="mm"
     inkscape:zoom="0.52347032"
     inkscape:cx="991.46023"
     inkscape:cy="144.22976"
     inkscape:window-width="1920"
     inkscape:window-height="1027"
     inkscape:window-x="0"
     inkscape:window-y="29"
     inkscape:window-maximized="1"
     inkscape:current-layer="layer1" />
  <defs
     id="defs1" />
  <g
     inkscape:label="Calque 1"
     inkscape:groupmode="layer"
     id="layer1"
     transform="translate(8.2038459,-87.237562)">
    <path
       style="fill:none;stroke:#ffffff;stroke-width:4;stroke-linecap:round;stroke-linejoin:round;stroke-dasharray:none;stroke-opacity:1;paint-order:fill markers stroke"
       d="m 22.182812,105.47142 c 0,0 -6.906163,0.48817 -6.906163,5.39936 0,4.91123 4.942727,8.65076 8.975866,8.42718 4.536186,-0.25147 14.104975,-3.31064 14.185929,-13.55394 0.05702,-7.215486 -6.72303,-16.673598 -20.592228,-16.504248 -13.8691982,0.16936 -22.8755656,14.296548 -22.9905765,24.215238 -0.1163983,10.03834 8.4353438,24.21441 29.6277325,23.9734 29.781884,-0.3387 38.128234,-48.086398 111.882108,-47.737608 29.81342,0.14099 42.21336,4.446196 59.34782,19.369488 19.67989,0.28703 73.63753,0.16813 73.63753,0.16813 1.37225,-7.98787 20.88577,-6.70195 21.03734,7.31113 0.16498,15.25319 -20.19197,14.85265 -21.078,7.42413 -7.84129,-0.0172 -74.2041,-0.45243 -74.2041,-0.45243 0,0 -26.08786,19.07336 -57.87401,19.49421 -31.17743,0.41279 -50.550318,-18.65617 -55.787456,-24.37194 6.376421,-6.73875 29.573616,-16.22758 54.636786,-16.38607 28.24896,-0.17863 39.4887,13.75784 39.4887,13.75784 0,0 -12.95913,11.01685 -37.88557,11.27987 -21.24887,0.22422 -31.0356,-7.27474 -31.0356,-7.27474"
       id="path1"
       sodipodi:nodetypes="csssssssccsccscscsc" />
  </g>
</svg>
