<?xml version="1.0" encoding="UTF-8" standalone="no"?>
<!-- Created with Inkscape (http://www.inkscape.org/) -->

<svg
   version="1.1"
   id="svg1"
   width="799"
   height="800"
   viewBox="0 0 799 800"
   sodipodi:docname="logo.svg"
   inkscape:version="1.3.2 (091e20ef0f, 2023-11-25)"
   xmlns:inkscape="http://www.inkscape.org/namespaces/inkscape"
   xmlns:sodipodi="http://sodipodi.sourceforge.net/DTD/sodipodi-0.dtd"
   xmlns="http://www.w3.org/2000/svg"
   xmlns:svg="http://www.w3.org/2000/svg">
  <defs
     id="defs1">
    <rect
       x="287.90015"
       y="301.93216"
       width="454.47027"
       height="196.98552"
       id="rect1" />
    <filter
       inkscape:collect="always"
       style="color-interpolation-filters:sRGB"
       id="filter3"
       x="-0.48379074"
       y="-2.0807151"
       width="1.9675815"
       height="5.1614302">
      <feGaussianBlur
         inkscape:collect="always"
         stdDeviation="59.31307"
         id="feGaussianBlur3" />
    </filter>
  </defs>
  <sodipodi:namedview
     id="namedview1"
     pagecolor="#505050"
     bordercolor="#eeeeee"
     borderopacity="1"
     inkscape:showpageshadow="0"
     inkscape:pageopacity="0"
     inkscape:pagecheckerboard="0"
     inkscape:deskcolor="#d1d1d1"
     inkscape:zoom="0.72478446"
     inkscape:cx="652.60781"
     inkscape:cy="351.82874"
     inkscape:window-width="1920"
     inkscape:window-height="1016"
     inkscape:window-x="0"
     inkscape:window-y="0"
     inkscape:window-maximized="1"
     inkscape:current-layer="g1" />
  <g
     inkscape:groupmode="layer"
     inkscape:label="Image"
     id="g1">
    <circle
       style="fill:#2a2a2a;stroke-width:22.8411;stroke-linecap:square;stroke-linejoin:round;paint-order:markers stroke fill;fill-opacity:1"
       id="path2"
       cx="399.70273"
       cy="393.78732"
       r="380.78888" />
    <ellipse
       style="display:inline;opacity:0.210357;mix-blend-mode:normal;fill:#b2b2b2;fill-opacity:1;stroke-width:15.1181;stroke-linecap:square;stroke-linejoin:round;paint-order:markers stroke fill;filter:url(#filter3)"
       id="path3"
       cx="402.30371"
       cy="593.38794"
       rx="147.1208"
       ry="34.207317"
       transform="matrix(1.077471,0,0,1.0915301,-23.82501,-107.42073)" />
    <path
       d="m 687.14075,334.72489 c -48.30787,0 -82.34293,32.62349 -82.34293,80.30397 0,47.68048 34.03506,80.30397 82.34293,80.30397 48.30785,0 82.34296,-32.62349 82.34296,-80.30397 0,-47.68048 -34.03511,-80.30397 -82.34296,-80.30397 z m 0,14.27279 c 36.54459,0 56.77742,32.78032 56.77742,66.03118 0,33.25086 -20.23283,66.03122 -56.77742,66.03122 -36.54456,0 -56.77742,-32.78036 -56.77742,-66.03122 0,-33.25086 20.23286,-66.03118 56.77742,-66.03118 z"
       style="font-size:96px;line-height:1;font-family:Gayathri;-inkscape-font-specification:Gayathri;text-align:center;letter-spacing:10.92px;word-spacing:-0.22px;text-anchor:middle;white-space:pre;fill:#f6f5f4;stroke-width:17.2775;stroke-linecap:square;stroke-linejoin:round;paint-order:markers stroke fill"
       id="path1-8" />
    <path
       id="path1"
       style="fill:#be0419;fill-opacity:1;stroke-width:1.00618"
       d="m 471.25781,75.705078 c -6.6113,0.244192 -13.14678,1.426245 -19.61956,2.727604 -9.41163,1.964869 -18.76458,4.330701 -27.81788,7.590201 -5.32872,1.965163 -10.42703,4.492504 -15.51373,7.004461 -25.84037,13.007906 -49.11014,30.742416 -69.61439,51.073246 -10.99545,10.86335 -21.19337,22.50793 -30.85546,34.56589 -1.7249,2.12615 -3.44979,4.25229 -5.17468,6.37844 -11.35334,-0.59737 -22.70851,-1.31169 -34.08281,-1.27099 -25.77798,-0.008 -51.67565,2.52924 -76.64225,9.12341 -20.6403,5.48107 -40.71348,13.83018 -58.20728,26.20335 -14.51821,10.26808 -27.0322,23.52222 -35.781743,39.04718 -8.84312,15.52373 -13.767605,33.17548 -14.708014,50.99298 -1.105278,19.85516 2.565748,39.77541 9.312772,58.41501 11.164035,31.19601 29.376005,59.46684 50.813225,84.57005 13.08012,15.34954 27.44687,29.56953 42.50183,42.97301 2.80252,2.52627 5.60503,5.05254 8.40755,7.57881 0.0514,9.47562 0.15982,18.95719 0.83157,28.41261 1.57269,23.35584 5.38854,46.59629 11.8731,69.10135 5.98965,20.67284 14.30862,40.85404 26.42735,58.72634 10.42016,15.41326 23.68134,29.06224 39.48208,38.98419 14.79358,9.35527 31.76472,15.23259 49.18093,16.9943 15.89448,1.67418 32.0519,0.0341 47.44184,-4.18044 20.17916,-5.49046 39.12438,-14.90814 56.55244,-26.37057 12.80032,-8.41755 24.79999,-18.01792 36.03767,-28.42313 9.30564,-8.58414 18.39894,-17.42831 26.735,-26.96794 0.46293,-0.34058 0.71631,-1.19626 1.33886,-1.1445 9.72981,0.69144 19.46312,1.42039 29.22022,1.55453 20.2587,0.33713 40.5597,-0.90811 60.58379,-4.02949 20.49045,-3.30276 40.635,-9.2148 59.33564,-18.27812 11.13726,-5.39611 21.71964,-11.9944 31.22095,-19.94083 1.76051,-1.428 3.52102,-2.856 5.28153,-4.284 3.41339,0.63301 6.85937,1.39516 10.35442,1.10602 8.57536,-0.46412 16.72913,-5.41872 21.13789,-12.78099 2.7844,-4.51968 4.02809,-9.89713 3.76294,-15.18271 0.007,-2.6609 -0.63235,-5.31554 -1.96633,-7.6269 -1.31016,-2.5087 -3.05161,-4.78203 -4.20689,-7.37089 -0.4303,-1.10724 0.48247,-2.1256 0.74168,-3.16677 3.82439,-11.36513 6.0608,-23.27044 6.5168,-35.25687 0.87202,-21.66884 -3.7749,-43.28364 -11.65879,-63.39214 -8.72915,-22.27433 -21.26775,-42.89302 -35.6679,-61.93481 -6.30581,-8.29685 -12.97729,-16.3101 -19.80268,-24.18234 -7.43696,-8.57212 -15.49825,-16.57526 -23.78419,-24.32152 -2.24648,-2.12026 -4.49297,-4.24052 -6.73945,-6.36078 0.67262,-10.64188 1.38278,-21.28793 1.44854,-31.95501 0.28398,-28.56843 -2.41774,-57.23377 -8.97394,-85.06603 C 601.91242,184.00553 594.57141,163.0873 583.83008,143.91797 574.32451,126.99682 561.92201,111.50659 546.45222,99.673755 532.89597,89.234213 516.99548,81.844864 500.24258,78.336833 490.73083,76.30701 480.97649,75.48974 471.25781,75.705078 Z m 4.69727,14.101563 c 6.58482,0.01289 13.17092,0.626106 19.63476,1.888671 0.92896,0.187558 2.16685,0.44342 3.09464,0.659163 2.20527,0.504135 4.23206,1.047982 6.37997,1.688494 1.16379,0.350733 2.55664,0.798733 3.79616,1.228448 2.24627,0.774334 4.60454,1.692013 6.69798,2.593817 6.52118,2.826626 12.79152,6.275556 18.5293,10.480466 0.69943,0.52135 1.6358,1.20309 2.41223,1.807 7.23404,5.60839 14.02641,11.82645 20.0066,18.7654 5.66991,6.81203 10.57834,14.23677 14.94976,21.93909 1.50873,2.67466 2.94323,5.39061 4.31696,8.13695 0.7264,1.4614 1.53018,3.1272 2.25398,4.68284 2.42438,5.21956 4.65958,10.66369 6.6132,15.99294 2.42594,6.63069 4.55948,13.43575 6.37305,20.1875 3.1614,11.74107 5.53729,23.93476 7.20195,35.99183 1.17214,8.53201 2.01809,17.12371 2.56444,25.67521 0.78416,12.21597 0.97371,24.49571 0.66916,36.79781 -0.14231,4.05218 -0.064,8.11995 -0.46289,12.1582 -0.17428,0.27189 -0.75425,-0.49674 -1.07464,-0.66408 -7.79445,-6.6279 -15.95741,-12.81094 -24.28929,-18.74591 -17.33201,-12.31656 -35.23926,-23.81904 -53.58603,-34.56376 -10.98927,-6.42772 -22.20255,-12.48207 -33.71228,-17.9277 -22.10443,-10.54475 -44.8317,-19.77641 -67.97428,-27.78237 -10.74301,-3.69441 -21.57743,-7.14498 -32.58741,-9.96016 -15.50794,-4.03379 -31.14538,-7.58015 -46.89084,-10.5596 -7.15619,-1.37367 -14.37817,-2.34429 -21.59031,-3.36673 4.37498,-5.43826 8.85091,-10.79556 13.529,-15.97652 15.55002,-17.43841 32.65732,-33.58604 51.66109,-47.22391 11.87158,-8.50358 24.50219,-16.0061 37.8978,-21.85231 1.2715,-0.55496 2.67844,-1.1512 3.97297,-1.67222 7.52922,-3.06766 15.417,-5.602422 23.27312,-7.370747 3.15669,-0.703116 6.43337,-1.321215 9.49424,-1.763468 3.11389,-0.457784 6.33105,-0.80425 9.38262,-0.998564 2.38871,-0.162035 4.99244,-0.245271 7.46299,-0.24578 z M 271.47461,197.87695 c 5.36439,0.0163 10.74437,0.0588 16.05191,0.27241 1.70613,0.0787 3.41505,0.14864 5.11215,0.34869 -8.74258,13.9304 -17.72957,27.71596 -25.91639,41.98583 -8.84671,15.32404 -16.86692,31.12559 -23.96149,47.33587 -1.96634,4.34298 -3.87015,8.74117 -6.3607,12.81625 -0.17215,0.63873 -0.83272,0.26972 -1.29853,0.32689 -7.87771,-0.27026 -15.52033,3.70798 -20.53906,9.65769 -3.61887,4.25598 -5.90161,9.70305 -6.01172,15.31887 -0.0662,2.24361 -0.26199,4.52431 0.13471,6.74518 0.95443,3.22925 2.83458,6.08993 4.73202,8.83711 1.65425,2.31428 3.51102,4.55739 5.95116,6.0797 0.80139,0.25866 0.14307,1.00968 0.0672,1.56424 -7.14209,22.57906 -12.53488,45.68235 -16.80893,68.96488 -3.41114,18.84137 -6.0887,37.84213 -7.25584,56.96319 -0.2247,2.95791 -0.45977,5.91591 -0.79882,8.86328 -6.8568,-6.00551 -13.34434,-12.41743 -19.80595,-18.84171 -7.52627,-7.50126 -14.7901,-15.2702 -21.6257,-23.40829 -16.98978,-20.22532 -31.82753,-42.62665 -42.58121,-66.87058 -2.6043,-5.66004 -4.61323,-11.57094 -6.31332,-17.55911 -2.1434,-7.56666 -3.95977,-15.43376 -5.29985,-23.18483 -0.978594,-5.82249 -1.849397,-11.82824 -1.729707,-17.8175 0.04631,-4.26911 0.293202,-8.53651 0.775655,-12.77892 0.06218,-0.48002 0.168895,-1.38637 0.226635,-1.85295 0.755851,-5.76266 1.955507,-11.46927 3.636647,-17.03376 0.28097,-0.90005 0.64448,-2.06702 0.98291,-3.0608 0.44271,-1.30098 0.83365,-2.39061 1.32535,-3.67572 4.21011,-11.02762 10.51733,-21.22426 18.37338,-30.0252 0.52515,-0.56989 1.23942,-1.37523 1.85472,-2.01963 9.78955,-10.40586 21.56236,-18.83655 34.20158,-25.43683 7.3772,-3.83362 15.08106,-7.01478 22.94175,-9.71151 0.92918,-0.30137 2.10669,-0.70729 3.13765,-1.03756 11.00566,-3.54854 22.43975,-6.17028 33.76078,-8.02885 10.07864,-1.63292 20.39497,-2.77508 30.66415,-3.32025 7.42941,-0.33408 14.89398,-0.40454 22.37687,-0.41608 z m 38.67773,2.13672 c 6.09343,0.62995 12.21395,1.60748 18.32144,2.54004 6.0827,0.9517 12.15723,1.95832 18.21372,3.06543 8.00102,1.47495 16.12007,3.23393 24.02894,5.16091 27.75798,6.77965 54.96257,16.00021 81.3768,27.04116 28.19829,11.81374 55.61175,25.75846 81.62385,41.89483 8.72606,5.39842 17.35105,11.14328 25.7165,17.15505 10.11946,7.27103 20.08074,14.69151 29.77149,22.48633 3.67771,2.93598 7.18681,6.07182 10.66406,9.24024 -1.30567,10.41162 -2.53471,20.72372 -4.24673,31.07288 -3.27433,20.28469 -7.72615,40.50802 -13.22806,60.35876 -4.42524,15.95981 -9.58359,31.83558 -15.40088,47.39836 -5.06877,13.51279 -10.68618,26.96932 -16.81933,40.0931 -14.83251,31.77356 -32.79758,62.29628 -54.14226,90.21158 -3.27336,4.28126 -6.71244,8.61116 -10.27602,12.545 -0.80621,0.86731 -1.60626,1.74726 -2.50781,2.51758 -4.13284,-0.22004 -8.26357,-0.91975 -12.3144,-1.49535 -8.88757,-1.36177 -17.83894,-2.94052 -26.69927,-4.68043 -5.9407,-1.18616 -12.07149,-2.53819 -17.97,-3.97726 -15.98317,-3.88312 -31.69048,-8.52667 -47.26754,-13.79975 -6.73331,-2.27609 -13.51519,-4.72144 -20.16446,-7.24198 -15.40897,-5.84715 -30.46719,-12.37343 -45.24407,-19.66281 -18.5669,-9.13515 -36.68522,-19.20732 -54.28723,-30.14657 -7.69091,-4.77846 -15.3646,-9.80238 -22.84405,-14.99194 -6.6678,-4.64127 -13.35654,-9.52806 -19.76981,-14.61336 -2.7305,-2.16251 -5.43446,-4.35829 -8.15206,-6.53703 0.37901,-7.62102 0.66383,-15.28386 1.22531,-22.84326 1.5155,-20.4783 4.40846,-40.90568 8.3842,-61.09194 1.59711,-8.10492 3.35254,-16.042 5.32569,-24.10557 1.52357,-6.20735 3.18933,-12.50071 4.95347,-18.69165 1.16493,-4.04998 2.40717,-8.227 3.60901,-12.3239 0.4246,-1.44347 0.8492,-2.88693 1.2738,-4.3304 2.79181,-0.20832 5.62257,-0.40517 8.27804,-1.36785 5.24757,-1.7998 10.16898,-4.89084 13.52298,-9.37411 5.24722,-6.79267 6.7297,-16.31531 3.66103,-24.34836 -1.51148,-4.11364 -4.22922,-7.70648 -7.57249,-10.513 -0.38102,-0.43876 -1.28036,-0.76606 -0.71,-1.40944 3.97271,-9.13552 7.93145,-18.25043 12.31324,-27.21143 5.3344,-10.99982 11.07415,-21.96493 17.10167,-32.60388 5.66995,-9.80342 11.79761,-19.33402 17.99368,-28.81084 3.61888,-5.43504 7.17594,-10.92328 11.13695,-16.11833 0.28767,-0.48992 0.55397,-0.62263 1.1206,-0.49081 z M 615.3457,342.62695 c 19.92368,19.26926 38.02402,40.56657 52.69058,64.12774 4.13207,6.65135 7.97231,13.48497 11.46567,20.49336 0.49743,1.01999 1.11435,2.26497 1.64453,3.37969 2.73615,5.75128 5.22866,11.61914 7.42774,17.59687 0.26964,0.77319 0.64836,1.82157 0.95989,2.70045 3.61538,10.36741 6.31086,21.07848 7.67683,31.98119 1.19447,9.60828 1.34023,19.54815 0.0378,29.2203 -0.77335,5.95529 -2.18689,11.91167 -4.06234,17.67833 -0.40264,1.30398 -0.80528,2.60795 -1.20792,3.91192 -3.80167,-0.2783 -7.63966,-1.01629 -11.44677,-0.42903 -3.39371,0.58627 -6.4026,2.39683 -9.33381,4.10933 -7.83712,5.03825 -12.63556,14.50771 -11.9677,23.81182 0.20973,3.19401 1.26292,6.2768 2.82122,9.05804 0.63243,1.20976 1.27069,2.41773 1.97002,3.59046 -2.03694,2.29088 -4.58413,4.05042 -6.95898,5.9668 -9.01564,6.99777 -18.94318,12.79793 -29.43164,17.29101 -9.47968,4.06094 -19.27113,7.3914 -29.25195,9.98633 -9.70278,2.50432 -19.65889,4.731 -29.69202,5.79526 -10.26108,1.13199 -20.59788,1.7483 -30.94546,2.13502 -8.1505,0.2853 -16.4149,0.42351 -24.6316,0.21449 -2.43465,-0.0624 -5.0827,-0.16789 -7.49228,-0.33977 -1.48567,-0.0938 -2.99214,-0.24488 -4.55114,-0.38508 5.29996,-7.06873 10.71273,-14.0567 15.69893,-21.35389 9.96224,-14.51657 19.36189,-29.42206 28.18048,-44.65981 6.54011,-11.32593 12.36321,-23.0497 17.91482,-34.88558 24.5246,-52.69468 41.00129,-109.09389 49.04781,-166.64317 0.31867,-2.26247 0.61577,-4.52765 0.90991,-6.79348 0.84245,0.8138 1.6849,1.6276 2.52734,2.4414 z m -406.41992,172.125 c 6.91527,4.265 13.27197,9.34879 19.9558,13.95415 30.4318,21.32081 63.08799,39.40928 97.05202,54.44771 34.34762,15.16039 70.09656,27.23522 106.75403,35.41031 12.17558,2.7297 24.46461,4.92292 36.80398,6.76368 1.06269,0.16482 2.12538,0.32964 3.18808,0.49447 -6.70129,6.92578 -13.42191,13.84242 -20.55312,20.33073 -16.90597,15.45817 -35.49441,29.27882 -56.03868,39.52864 -5.40077,2.68638 -10.95989,5.14131 -16.61868,7.09027 -6.56053,2.32242 -13.25738,4.2535 -20.03171,5.84528 -0.69242,0.14953 -1.69233,0.37592 -2.50277,0.55496 -5.92306,1.29914 -11.94702,2.20751 -18.01813,2.33237 -3.67306,0.12585 -7.39633,0.0717 -10.9915,-0.16003 -3.19605,-0.20555 -6.38993,-0.55106 -9.49241,-1.04131 -5.69834,-0.88302 -11.52905,-2.31787 -17.05893,-4.23475 -2.08156,-0.72577 -4.01115,-1.46376 -6.06403,-2.32749 -3.73025,-1.57819 -7.42478,-3.42224 -10.86606,-5.40717 -3.96115,-2.27801 -7.80958,-4.85944 -11.38448,-7.59167 -12.97705,-9.9211 -23.74763,-22.56641 -32.09241,-36.57422 -1.56494,-2.60307 -3.07686,-5.30459 -4.46116,-7.91614 -1.21398,-2.28214 -2.30221,-4.45617 -3.42973,-6.79324 -3.07395,-6.42034 -5.88917,-12.97007 -8.37009,-19.64201 -1.9537,-5.77174 -3.50883,-11.84204 -5.02871,-17.82516 -2.995,-12.09779 -5.72653,-24.27007 -7.83094,-36.55673 -0.33442,-2.0228 -0.65466,-4.12669 -0.86091,-6.06723 -1.0319,-10.28312 -1.72229,-20.59482 -2.21376,-30.93768 -0.0486,-1.27966 -0.0979,-2.55943 -0.12109,-3.83985 0.0918,0.054 0.18359,0.10808 0.27539,0.16211 z" />
    <circle
       style="fill:#f6f5f4;fill-opacity:1;stroke-width:15.1181;stroke-linecap:square;stroke-linejoin:round;paint-order:markers stroke fill"
       id="path4-3"
       cx="235.46187"
       cy="326.59909"
       r="35.209602" />
    <path
       d="m 48.787703,308.15262 v 177.17784 c 0,3.43101 4.940667,6.17582 11.253742,6.17582 H 165.71684 c 6.31307,0 11.25374,-2.74481 11.25374,-6.17582 0,-3.56826 -4.94067,-6.31307 -11.25374,-6.31307 H 71.157933 V 308.15262 c 0,-3.431 -4.940668,-6.17582 -11.116488,-6.17582 -6.313075,0 -11.253742,2.74482 -11.253742,6.17582 z m 174.976487,52.28875 v 128.04562 c 0,3.43103 5.07789,6.31307 11.25374,6.31307 6.17582,0 11.25374,-2.88204 11.25374,-6.31307 V 360.44137 c 0,-3.43104 -5.07792,-6.17585 -11.25374,-6.17585 -6.17585,0 -11.25374,2.74481 -11.25374,6.17585 z m 141.90145,134.35869 c 5.76411,0 11.25374,-0.54896 16.46889,-1.50963 3.15652,-0.54896 9.60685,-2.47034 9.60685,-6.17585 0,-4.80341 -7.68548,-6.31308 -11.391,-6.31308 -4.80341,0 -9.46959,1.50967 -14.68474,1.50967 -15.09649,-0.13732 -20.99786,-10.01859 -20.99786,-24.42886 v -91.12787 h 25.80127 c 6.17585,0 11.25374,-2.74481 11.25374,-6.17585 0,-3.56826 -5.07789,-6.31307 -11.25374,-6.31307 h -25.80127 v -45.97564 c 0,-3.56826 -4.94066,-6.31308 -11.11648,-6.31308 -6.17585,0 -11.25375,2.74482 -11.25375,6.31308 v 45.97564 h -18.11578 c -6.17585,0 -11.11651,2.74481 -11.11651,6.31307 0,3.43104 4.94066,6.17585 11.11651,6.17585 h 18.11578 v 91.12787 c 0,26.48745 19.48819,36.78053 43.36809,36.91775 z m 190.21019,0 c 6.17585,0 11.25375,-2.74481 11.25375,-6.17582 v -72.87486 c 0,-34.99638 -24.56609,-61.62109 -59.9742,-61.62109 -17.56682,0 -35.40812,6.72479 -43.91705,21.95852 v -67.93419 c 0,-3.431 -4.94067,-6.17582 -11.11652,-6.17582 -6.17582,0 -11.25374,2.74482 -11.25374,6.17582 v 180.47162 c 0,3.43101 5.07792,6.17582 11.25374,6.17582 6.17585,0 11.11652,-2.74481 11.11652,-6.17582 V 419.8666 c 0,-35.27086 19.21371,-53.11216 42.27016,-52.97493 19.76267,0 39.25086,16.33166 39.25086,48.85771 v 72.87486 c 0,3.43101 4.94066,6.17582 11.11648,6.17582 z"
       id="text1"
       style="font-size:96px;line-height:1;font-family:Gayathri;-inkscape-font-specification:Gayathri;text-align:center;letter-spacing:10.92px;word-spacing:-0.22px;text-anchor:middle;white-space:pre;fill:#f6f5f4;stroke-width:44.2628;stroke-linecap:square;stroke-linejoin:round;paint-order:markers stroke fill"
       aria-label="Litho"
       sodipodi:nodetypes="sssssscssssssssssccsscscssscssscssscscsssscssssssscsss" />
    <circle
       style="opacity:1;fill:#f6f5f4;fill-opacity:1;stroke-width:15.1181;stroke-linecap:square;stroke-linejoin:round;paint-order:markers stroke fill"
       id="path4"
       cx="689.24316"
       cy="554.7995"
       r="35.209602" />
    <path
       style="opacity:1;fill:#f6f5f4;fill-opacity:1;stroke-width:15.1181;stroke-linecap:square;stroke-linejoin:round;paint-order:markers stroke fill"
       d="m 643.7234,345.27008 c -6.47763,3.48138 -13.169,8.31243 -17.53476,13.40804 3.78075,5.00602 14.36048,17.06889 14.36048,17.06889 3.92321,-5.7713 9.01227,-11.89018 13.80764,-15.63447 z"
       id="path5"
       sodipodi:nodetypes="ccccc" />
  </g>
</svg>
